<?xml version="1.0" encoding="UTF-8"?>
<svg id="Layer_1" data-name="Layer 1" xmlns="http://www.w3.org/2000/svg" xmlns:xlink="http://www.w3.org/1999/xlink" viewBox="0 0 72 72">
  <defs>
    <style>
      .cls-1 {
        fill: url(#linear-gradient-12);
      }

      .cls-1, .cls-2, .cls-3, .cls-4, .cls-5, .cls-6, .cls-7, .cls-8, .cls-9, .cls-10, .cls-11, .cls-12, .cls-13, .cls-14, .cls-15, .cls-16, .cls-17, .cls-18 {
        stroke-width: 0px;
      }

      .cls-2 {
        fill: url(#linear-gradient);
      }

      .cls-3 {
        fill: url(#linear-gradient-6);
      }

      .cls-4 {
        fill: #d3a553;
      }

      .cls-5 {
        fill: url(#linear-gradient-11);
      }

      .cls-6 {
        fill: url(#linear-gradient-5);
      }

      .cls-7 {
        fill: url(#linear-gradient-13);
      }

      .cls-8 {
        fill: #e2b65d;
      }

      .cls-9 {
        fill: url(#linear-gradient-14);
      }

      .cls-10 {
        fill: url(#linear-gradient-2);
      }

      .cls-11 {
        fill: url(#linear-gradient-7);
      }

      .cls-12 {
        fill: url(#linear-gradient-3);
      }

      .cls-13 {
        fill: url(#linear-gradient-9);
      }

      .cls-14 {
        fill: url(#linear-gradient-8);
      }

      .cls-15 {
        fill: #fff;
      }

      .cls-16 {
        fill: url(#linear-gradient-10);
      }

      .cls-17 {
        fill: url(#linear-gradient-4);
      }

      .cls-18 {
        fill: #25304f;
      }
    </style>
    <linearGradient id="linear-gradient" x1="33.72" y1="42.08" x2="33.61" y2="52.22" gradientUnits="userSpaceOnUse">
      <stop offset="0" stop-color="#98a4af"/>
      <stop offset="1" stop-color="#c0d0e0"/>
    </linearGradient>
    <linearGradient id="linear-gradient-2" x1="7.72" y1="48.22" x2="52.17" y2="39.33" gradientUnits="userSpaceOnUse">
      <stop offset="0" stop-color="#acbac6"/>
      <stop offset="1" stop-color="#d4e5f7"/>
    </linearGradient>
    <linearGradient id="linear-gradient-3" x1="58.27" y1="11.51" x2="-7.55" y2="49.06" gradientUnits="userSpaceOnUse">
      <stop offset="0" stop-color="#3950a1"/>
      <stop offset="1" stop-color="#243163"/>
    </linearGradient>
    <linearGradient id="linear-gradient-4" x1="9.18" y1="55.54" x2="53.64" y2="46.65" xlink:href="#linear-gradient-2"/>
    <linearGradient id="linear-gradient-5" x1="35.13" y1="37.97" x2="9.52" y2="46.22" gradientUnits="userSpaceOnUse">
      <stop offset="0" stop-color="#f2a491"/>
      <stop offset="1" stop-color="#f28267"/>
    </linearGradient>
    <linearGradient id="linear-gradient-6" x1="56.07" y1="14.35" x2="15.37" y2="38.96" gradientUnits="userSpaceOnUse">
      <stop offset="0" stop-color="#59e6ff"/>
      <stop offset="1" stop-color="#32c7e2"/>
    </linearGradient>
    <linearGradient id="linear-gradient-7" x1="23.97" y1="35.2" x2="27.48" y2="40.48" gradientUnits="userSpaceOnUse">
      <stop offset="0" stop-color="#e8c4a9"/>
      <stop offset="1" stop-color="#e8d9cc"/>
    </linearGradient>
    <linearGradient id="linear-gradient-8" x1="20.03" y1="33.15" x2="34.37" y2="26.39" gradientUnits="userSpaceOnUse">
      <stop offset="0" stop-color="#f6d0b3"/>
      <stop offset="1" stop-color="#f6e6d8"/>
    </linearGradient>
    <linearGradient id="linear-gradient-9" x1="30.2" y1="23.58" x2="56.04" y2="15.55" gradientUnits="userSpaceOnUse">
      <stop offset="0" stop-color="#2c9fa8"/>
      <stop offset="1" stop-color="#40bdc7"/>
    </linearGradient>
    <linearGradient id="linear-gradient-10" x1="31.49" y1="27.73" x2="57.33" y2="19.7" xlink:href="#linear-gradient-9"/>
    <linearGradient id="linear-gradient-11" x1="30.97" y1="26.05" x2="56.81" y2="18.02" xlink:href="#linear-gradient-9"/>
    <linearGradient id="linear-gradient-12" x1="32.4" y1="30.65" x2="58.24" y2="22.62" xlink:href="#linear-gradient-9"/>
    <linearGradient id="linear-gradient-13" x1="40.11" y1="47.46" x2="55.11" y2="43" xlink:href="#linear-gradient-8"/>
    <linearGradient id="linear-gradient-14" x1="34.33" y1="60.72" x2="57.6" y2="50.76" gradientUnits="userSpaceOnUse">
      <stop offset="0" stop-color="#32c7e2"/>
      <stop offset="1" stop-color="#91e3f2"/>
    </linearGradient>
  </defs>
  <polygon class="cls-2" points="38.36 49.4 38.36 50.19 28.91 50.19 28.91 49.4 30.48 46.25 30.48 45.46 36.79 45.46 36.79 46.25 38.36 49.4"/>
  <path class="cls-10" d="M43.43,43.09l-2.54,3.15H15.5c-1.31,0-2.36-1.06-2.36-2.36v-.79l.79-.79h29.96l-.45.79Z"/>
  <path class="cls-12" d="M54.13,15.5v14.28l-10.7,13.31H13.14V15.5c0-1.31,1.06-2.36,2.36-2.36h36.26c1.31,0,2.36,1.06,2.36,2.36Z"/>
  <path class="cls-17" d="M41.01,49.83c-.29-.28-.67-.43-1.06-.43h-12.61c-.87,0-1.57.71-1.58,1.58,0,.87.71,1.57,1.58,1.58h9.52l4.15-2.73Z"/>
  <path class="cls-6" d="M16.29,43.09c.05-1.95,1.15-3.72,2.88-4.63h11.59c1.73.9,2.83,2.68,2.88,4.63h-17.34Z"/>
  <path class="cls-3" d="M39.4,30.48h-2.61c-.87,0-1.57-.71-1.58-1.58v-11.04c0-.87.71-1.57,1.58-1.58h12.61c.87,0,1.57.71,1.58,1.58v9.54l-11.58,3.07Z"/>
  <path class="cls-15" d="M30.76,38.47l-2.64,4.63-3.15-3.15-3.15,3.15-2.64-4.63c1.05-.59,2.23-.9,3.43-.89h4.73c1.2,0,2.38.3,3.43.89Z"/>
  <polygon class="cls-11" points="27.33 35.8 27.33 37.58 24.96 39.94 22.6 37.58 22.6 35.8 27.33 35.8"/>
  <path class="cls-4" d="M28.02,20.19c.06-.24.1-.5.09-.75,0-1.74-1.41-3.15-3.15-3.15s-3.15,1.41-3.15,3.15c0,.24.03.48.09.71l6.13.04Z"/>
  <path class="cls-8" d="M17.87,28.91v-2.36c0-3.9,3.15-7.06,7.05-7.09,3.98.1,7.16,3.37,7.14,7.35v2.11h-14.19Z"/>
  <path class="cls-14" d="M30.38,27.33c.82-.02,1.54.57,1.67,1.39.1.86-.51,1.65-1.38,1.75-.06,0-.13.01-.19.01-.11.88-.36,1.73-.75,2.52-.59,1.04-2.67,3.79-4.77,3.79s-4.18-2.75-4.77-3.79c-.39-.79-.65-1.64-.75-2.52-.87,0-1.58-.7-1.58-1.58,0-.09,0-.18.02-.27.16-.77.84-1.31,1.62-1.3,3.43,0,5.21-.72,6.12-1.36.51-.37,1.21-.32,1.65.13.82.82,1.94,1.26,3.1,1.23Z"/>
  <path class="cls-13" d="M47.82,20.23h-8.67c-.44,0-.79-.35-.79-.79s.35-.79.79-.79h8.67c.44,0,.79.35.79.79s-.35.79-.79.79Z"/>
  <path class="cls-16" d="M47.82,24.18h-4.73c-.44,0-.79-.35-.79-.79s.35-.79.79-.79h4.73c.44,0,.79.35.79.79s-.35.79-.79.79Z"/>
  <path class="cls-5" d="M39.94,24.18h-.79c-.44,0-.79-.35-.79-.79s.35-.79.79-.79h.79c.44,0,.79.35.79.79s-.35.79-.79.79Z"/>
  <path class="cls-1" d="M47.04,28.12h-7.88c-.44,0-.79-.35-.79-.79s.35-.79.79-.79h7.88c.44,0,.79.35.79.79s-.35.79-.79.79Z"/>
  <path class="cls-7" d="M39.71,43.38l.11.65c.22,1.25.95,2.35,2.01,3.03,1.28.84,3.15,2.34,5.21,2.34s3.93-1.5,5.21-2.34c1.06-.69,1.79-1.79,2.01-3.03l.11-.65h-14.66Z"/>
  <path class="cls-18" d="M37.58,39.34c0,5.33,6.15,5.33,9.46,5.33s9.46,0,9.46-5.33v-3.2c.04-5.26-4.2-9.56-9.46-9.6-2.52,0-4.93,1.02-6.68,2.82-1.78,1.81-2.78,4.24-2.77,6.78v3.2Z"/>
  <path class="cls-9" d="M36.79,58.86h20.5c.87,0,1.58-.71,1.58-1.58h0c0-4.76-4.04-7.88-8.68-7.88h-6.3c-4.64,0-8.68,3.12-8.68,7.88h0c0,.87.71,1.58,1.58,1.58Z"/>
</svg>