<?xml version="1.0" encoding="UTF-8"?>
<svg id="Layer_1" data-name="Layer 1" xmlns="http://www.w3.org/2000/svg" xmlns:xlink="http://www.w3.org/1999/xlink" viewBox="0 0 72 72">
  <defs>
    <style>
      .cls-1 {
        stroke: url(#linear-gradient);
      }

      .cls-1, .cls-2, .cls-3 {
        fill: none;
        stroke-miterlimit: 10;
        stroke-width: .36px;
      }

      .cls-4 {
        fill: url(#linear-gradient-12);
      }

      .cls-4, .cls-5, .cls-6, .cls-7, .cls-8, .cls-9, .cls-10, .cls-11, .cls-12, .cls-13, .cls-14, .cls-15 {
        stroke-width: 0px;
      }

      .cls-5 {
        fill: url(#linear-gradient-6);
      }

      .cls-6 {
        fill: url(#linear-gradient-15);
      }

      .cls-7 {
        fill: url(#linear-gradient-11);
      }

      .cls-8 {
        fill: url(#linear-gradient-5);
      }

      .cls-2 {
        stroke: url(#linear-gradient-3);
      }

      .cls-9 {
        fill: url(#linear-gradient-13);
      }

      .cls-3 {
        stroke: url(#linear-gradient-2);
      }

      .cls-10 {
        fill: url(#linear-gradient-14);
      }

      .cls-11 {
        fill: url(#linear-gradient-7);
      }

      .cls-12 {
        fill: url(#linear-gradient-9);
      }

      .cls-13 {
        fill: url(#linear-gradient-8);
      }

      .cls-14 {
        fill: url(#linear-gradient-10);
      }

      .cls-15 {
        fill: url(#linear-gradient-4);
      }
    </style>
    <linearGradient id="linear-gradient" x1="19.85" y1="21.2" x2="46.36" y2="21.2" gradientUnits="userSpaceOnUse">
      <stop offset=".02" stop-color="#5676a8"/>
      <stop offset="1" stop-color="#7daff3"/>
    </linearGradient>
    <linearGradient id="linear-gradient-2" x1="19.82" y1="31.76" x2="51.86" y2="31.76" gradientUnits="userSpaceOnUse">
      <stop offset=".02" stop-color="#70a88b"/>
      <stop offset="1" stop-color="#9ff3c5"/>
    </linearGradient>
    <linearGradient id="linear-gradient-3" x1="27.93" y1="43.61" x2="51.85" y2="43.61" gradientUnits="userSpaceOnUse">
      <stop offset=".02" stop-color="#8452a8"/>
      <stop offset="1" stop-color="#be7bf3"/>
    </linearGradient>
    <linearGradient id="linear-gradient-4" x1="-5.61" y1="52.77" x2="31.56" y2="11.7" xlink:href="#linear-gradient-2"/>
    <linearGradient id="linear-gradient-5" x1="35.81" y1="52.35" x2="60.63" y2="31.53" xlink:href="#linear-gradient-3"/>
    <linearGradient id="linear-gradient-6" x1="12.76" y1="64.2" x2="39.87" y2="35.49" gradientUnits="userSpaceOnUse">
      <stop offset=".02" stop-color="#a88f56"/>
      <stop offset="1" stop-color="#f3ce7d"/>
    </linearGradient>
    <linearGradient id="linear-gradient-7" x1="37.73" y1="26.74" x2="51.24" y2="12.46" xlink:href="#linear-gradient"/>
    <linearGradient id="linear-gradient-8" x1="13.08" y1="58.42" x2="30.16" y2="42.41" gradientUnits="userSpaceOnUse">
      <stop offset=".02" stop-color="#a7d1f1"/>
      <stop offset="1" stop-color="#e2f3ff"/>
    </linearGradient>
    <linearGradient id="linear-gradient-9" x1="17.5" y1="63.14" x2="34.58" y2="47.13" xlink:href="#linear-gradient-8"/>
    <linearGradient id="linear-gradient-10" x1="41.7" y1="42.93" x2="53.37" y2="35.25" xlink:href="#linear-gradient-8"/>
    <linearGradient id="linear-gradient-11" x1="44.61" y1="47.35" x2="56.28" y2="39.67" xlink:href="#linear-gradient-8"/>
    <linearGradient id="linear-gradient-12" x1="1.71" y1="35.89" x2="25.46" y2="18.75" xlink:href="#linear-gradient-8"/>
    <linearGradient id="linear-gradient-13" x1="4.49" y1="39.74" x2="28.24" y2="22.6" xlink:href="#linear-gradient-8"/>
    <linearGradient id="linear-gradient-14" x1="40.39" y1="20.4" x2="47.86" y2="15.35" xlink:href="#linear-gradient-8"/>
    <linearGradient id="linear-gradient-15" x1="42.19" y1="23.07" x2="49.66" y2="18.02" xlink:href="#linear-gradient-8"/>
  </defs>
  <line class="cls-1" x1="46.32" y1="17.82" x2="19.9" y2="24.58"/>
  <line class="cls-3" x1="19.9" y1="24.58" x2="51.78" y2="38.94"/>
  <line class="cls-2" x1="51.78" y1="39.12" x2="28" y2="48.11"/>
  <circle class="cls-15" cx="19.91" cy="24.58" r="8.09"/>
  <circle class="cls-8" cx="51.79" cy="38.94" r="8.39"/>
  <circle class="cls-5" cx="28" cy="48.06" r="11.09"/>
  <circle class="cls-11" cx="46.17" cy="17.82" r="4.98"/>
  <g>
    <circle class="cls-13" cx="28.42" cy="44.04" r="4.07"/>
    <path class="cls-12" d="M31.43,48.74c-.87.56-1.9.88-3.01.88s-2.21-.35-3.1-.94c-2.26.9-4.02,2.79-4.73,5.14,1.65,2.37,4.4,3.92,7.5,3.92,3.28,0,6.17-1.74,7.78-4.35-.77-2.1-2.39-3.79-4.44-4.66Z"/>
  </g>
  <g>
    <circle class="cls-14" cx="51.78" cy="36.29" r="2.83"/>
    <path class="cls-7" d="M54.42,39.74c-.73.56-1.64.89-2.63.89s-1.89-.33-2.62-.88c-1.3.69-2.31,1.87-2.76,3.3,1.13,1.78,3.11,2.97,5.38,2.97s4.28-1.21,5.4-3.01c-.46-1.42-1.46-2.59-2.77-3.27Z"/>
  </g>
  <g>
    <circle class="cls-4" cx="19.9" cy="22.77" r="2.83"/>
    <path class="cls-9" d="M21.69,25.93c-.53.3-1.14.47-1.8.47s-1.25-.17-1.78-.47c-1.39.53-2.48,1.64-2.98,3.05,1.06,1.49,2.8,2.46,4.76,2.46s3.73-.99,4.79-2.49c-.51-1.39-1.6-2.5-2.99-3.02Z"/>
  </g>
  <g>
    <circle class="cls-10" cx="46.17" cy="16.49" r="1.78"/>
    <path class="cls-6" d="M46.17,22.15c1.4,0,2.64-.66,3.44-1.68-.37-.9-1.1-1.61-2.01-1.96-.41.29-.9.46-1.43.46-.46,0-.9-.13-1.27-.35-.9.42-1.59,1.22-1.87,2.2.8.82,1.91,1.33,3.14,1.33Z"/>
  </g>
</svg>