<?xml version="1.0" encoding="UTF-8"?>
<svg id="Layer_1" data-name="Layer 1" xmlns="http://www.w3.org/2000/svg" xmlns:xlink="http://www.w3.org/1999/xlink" viewBox="0 0 72 72">
  <defs>
    <style>
      .cls-1 {
        fill: url(#linear-gradient-12);
      }

      .cls-1, .cls-2, .cls-3, .cls-4, .cls-5, .cls-6, .cls-7, .cls-8, .cls-9, .cls-10, .cls-11, .cls-12, .cls-13, .cls-14, .cls-15, .cls-16, .cls-17, .cls-18 {
        stroke-width: 0px;
      }

      .cls-2 {
        fill: url(#linear-gradient);
      }

      .cls-3 {
        fill: url(#linear-gradient-6);
      }

      .cls-4 {
        fill: url(#linear-gradient-15);
      }

      .cls-5 {
        fill: url(#linear-gradient-11);
      }

      .cls-6 {
        fill: url(#linear-gradient-5);
      }

      .cls-7 {
        fill: url(#linear-gradient-13);
      }

      .cls-8 {
        fill: url(#linear-gradient-16);
      }

      .cls-9 {
        fill: url(#linear-gradient-14);
      }

      .cls-10 {
        fill: #f9da82;
      }

      .cls-11 {
        fill: url(#linear-gradient-2);
      }

      .cls-12 {
        fill: url(#linear-gradient-7);
      }

      .cls-13 {
        fill: #ffe8a0;
      }

      .cls-14 {
        fill: url(#linear-gradient-3);
      }

      .cls-15 {
        fill: url(#linear-gradient-9);
      }

      .cls-16 {
        fill: url(#linear-gradient-8);
      }

      .cls-17 {
        fill: url(#linear-gradient-10);
      }

      .cls-18 {
        fill: url(#linear-gradient-4);
      }
    </style>
    <linearGradient id="linear-gradient" x1="11.96" y1="67.7" x2="19.28" y2="16.09" gradientUnits="userSpaceOnUse">
      <stop offset="0" stop-color="#9fb6d1"/>
      <stop offset="1" stop-color="#b3ceec"/>
    </linearGradient>
    <linearGradient id="linear-gradient-2" x1="39.77" y1="65.43" x2="49.07" y2="24.86" gradientUnits="userSpaceOnUse">
      <stop offset="0" stop-color="#b4c0cf"/>
      <stop offset="1" stop-color="#d5e3f4"/>
    </linearGradient>
    <linearGradient id="linear-gradient-3" x1="28.71" y1="64.16" x2="40.22" y2="16.86" gradientUnits="userSpaceOnUse">
      <stop offset="0" stop-color="#fe7d43"/>
      <stop offset="1" stop-color="#fe9e72"/>
    </linearGradient>
    <linearGradient id="linear-gradient-4" x1="43.18" y1="59.09" x2="64.26" y2="21.83" gradientUnits="userSpaceOnUse">
      <stop offset="0" stop-color="#0ab69f"/>
      <stop offset="1" stop-color="#33d4be"/>
    </linearGradient>
    <linearGradient id="linear-gradient-5" x1="21.8" y1="65.84" x2="28.89" y2="19.58" gradientUnits="userSpaceOnUse">
      <stop offset="0" stop-color="#e0cc8d"/>
      <stop offset="1" stop-color="#ffe8a0"/>
    </linearGradient>
    <linearGradient id="linear-gradient-6" x1="30.17" y1="34.65" x2="41.13" y2="29.28" gradientUnits="userSpaceOnUse">
      <stop offset="0" stop-color="#e26f3c"/>
      <stop offset="1" stop-color="#e28d65"/>
    </linearGradient>
    <linearGradient id="linear-gradient-7" x1="39.77" y1="30.11" x2="61.1" y2="21.41" gradientUnits="userSpaceOnUse">
      <stop offset="0" stop-color="#089583"/>
      <stop offset="1" stop-color="#2bb3a0"/>
    </linearGradient>
    <linearGradient id="linear-gradient-8" x1="10.76" y1="22.84" x2="18.45" y2="21.83" gradientUnits="userSpaceOnUse">
      <stop offset="0" stop-color="#8a9eb5"/>
      <stop offset="1" stop-color="#9eb6d0"/>
    </linearGradient>
    <linearGradient id="linear-gradient-9" x1="14.78" y1="53.28" x2="22.47" y2="52.27" xlink:href="#linear-gradient-8"/>
    <linearGradient id="linear-gradient-10" x1="14.36" y1="50.09" x2="22.05" y2="49.08" xlink:href="#linear-gradient-8"/>
    <linearGradient id="linear-gradient-11" x1="50.06" y1="55.31" x2="71.38" y2="46.61" xlink:href="#linear-gradient-7"/>
    <linearGradient id="linear-gradient-12" x1="48.92" y1="52.53" x2="70.25" y2="43.82" xlink:href="#linear-gradient-7"/>
    <linearGradient id="linear-gradient-13" x1="27.46" y1="29.12" x2="38.42" y2="23.75" xlink:href="#linear-gradient-6"/>
    <linearGradient id="linear-gradient-14" x1="26.18" y1="26.5" x2="37.13" y2="21.13" xlink:href="#linear-gradient-6"/>
    <linearGradient id="linear-gradient-15" x1="21.58" y1="36.36" x2="30.28" y2="24.46" gradientUnits="userSpaceOnUse">
      <stop offset="0" stop-color="#c8b67e"/>
      <stop offset="1" stop-color="#e7d291"/>
    </linearGradient>
    <linearGradient id="linear-gradient-16" x1="38.95" y1="55.75" x2="50.2" y2="45.09" gradientUnits="userSpaceOnUse">
      <stop offset="0" stop-color="#9ba6b2"/>
      <stop offset="1" stop-color="#bcc8d7"/>
    </linearGradient>
  </defs>
  <path class="cls-2" d="M20.91,13.75h-8.91c-.51,0-.92.41-.92.92v42.65c0,.51.41.92.92.92h8.91c.51,0,.92-.41.92-.92V14.67c0-.51-.41-.92-.92-.92ZM19.26,14.19c-.04-.06-.09-.12-.14-.17.05.05.1.11.14.17ZM19.06,13.96c-.15-.12-.34-.2-.55-.21.21,0,.4.09.55.21Z"/>
  <rect class="cls-11" x="40.64" y="23.46" width="9.53" height="34.78" rx=".92" ry=".92"/>
  <path class="cls-14" d="M40.64,17.11v40.21c0,.51-.41.92-.92.92h-8.91c-.51,0-.92-.41-.92-.92V17.11c0-.51.41-.92.92-.92h8.9c.51,0,.93.41.93.92Z"/>
  <rect class="cls-18" x="50.18" y="16.19" width="10.74" height="42.04" rx=".92" ry=".92"/>
  <path class="cls-10" d="M28.05,20.63c-.13-.08-.27-.12-.43-.13.16,0,.3.05.43.13Z"/>
  <path class="cls-6" d="M28.96,20.49h-6.22c-.51,0-.92.41-.92.92v35.92c0,.51.41.92.92.92h6.23c.51,0,.92-.41.92-.92V21.41c0-.52-.41-.93-.93-.92ZM28.05,20.63c-.13-.08-.27-.12-.43-.13.16,0,.3.05.43.13Z"/>
  <path class="cls-13" d="M28.05,20.63c-.13-.08-.27-.12-.43-.13.16,0,.3.05.43.13Z"/>
  <path class="cls-3" d="M37.59,33.75h-4.65c-.4,0-.72-.32-.72-.72v-1.74c0-.4.32-.72.72-.72h4.65c.4,0,.72.32.72.72v1.74c0,.4-.32.72-.72.72Z"/>
  <path class="cls-12" d="M57.88,25.26h-4.66c-.4,0-.72-.32-.72-.72v-1.75c0-.4.32-.72.72-.72h4.66c.4,0,.72.32.72.72v1.75c0,.4-.32.72-.72.72Z"/>
  <path class="cls-16" d="M18.87,23.67h-4.66c-.4,0-.72-.32-.72-.72v-1.75c0-.4.32-.72.72-.72h4.66c.4,0,.72.32.72.72v1.75c0,.4-.32.72-.72.72Z"/>
  <g>
    <path class="cls-15" d="M19.18,53.67h-5.57c-.79,0-.79-1.21,0-1.21h5.57c.79,0,.8,1.21,0,1.21Z"/>
    <path class="cls-17" d="M19.18,50.43h-5.57c-.79,0-.79-1.21,0-1.21h5.57c.79,0,.8,1.21,0,1.21Z"/>
  </g>
  <g>
    <path class="cls-5" d="M58.33,53.67h-5.57c-.79,0-.79-1.21,0-1.21h5.57c.79,0,.8,1.21,0,1.21Z"/>
    <path class="cls-1" d="M58.33,50.43h-5.57c-.79,0-.79-1.21,0-1.21h5.57c.79,0,.8,1.21,0,1.21Z"/>
  </g>
  <g>
    <path class="cls-7" d="M38.05,25.9h-5.57c-.79,0-.79-1.21,0-1.21h5.57c.79,0,.79,1.21,0,1.21Z"/>
    <path class="cls-9" d="M38.05,22.65h-5.57c-.79,0-.79-1.21,0-1.21h5.57c.79,0,.79,1.21,0,1.21Z"/>
  </g>
  <rect class="cls-4" x="24.37" y="26.52" width="2.91" height="8.08" rx=".72" ry=".72"/>
  <rect class="cls-8" x="43.95" y="45.59" width="2.91" height="8.08" rx=".72" ry=".72"/>
</svg>