<?xml version="1.0" encoding="UTF-8"?>
<svg id="Layer_1" data-name="Layer 1" xmlns="http://www.w3.org/2000/svg" xmlns:xlink="http://www.w3.org/1999/xlink" viewBox="0 0 72 72">
  <defs>
    <style>
      .cls-1 {
        fill: url(#linear-gradient);
      }

      .cls-1, .cls-2, .cls-3, .cls-4, .cls-5, .cls-6 {
        stroke-width: 0px;
      }

      .cls-2 {
        fill: url(#linear-gradient-6);
      }

      .cls-3 {
        fill: url(#linear-gradient-5);
      }

      .cls-4 {
        fill: url(#linear-gradient-2);
      }

      .cls-5 {
        fill: url(#linear-gradient-3);
      }

      .cls-6 {
        fill: url(#linear-gradient-4);
      }
    </style>
    <linearGradient id="linear-gradient" x1="3.49" y1="39.55" x2="79.49" y2="20.74" gradientUnits="userSpaceOnUse">
      <stop offset="0" stop-color="#338bff"/>
      <stop offset="1" stop-color="#0e43cf"/>
    </linearGradient>
    <linearGradient id="linear-gradient-2" x1="5.19" y1="46.42" x2="81.19" y2="27.61" xlink:href="#linear-gradient"/>
    <linearGradient id="linear-gradient-3" x1="54.58" y1="2.75" x2="15.83" y2="63.65" gradientUnits="userSpaceOnUse">
      <stop offset="0" stop-color="#f5f7ff"/>
      <stop offset="1" stop-color="#d6dbed"/>
    </linearGradient>
    <linearGradient id="linear-gradient-4" x1="71.6" y1="34.18" x2="-13.07" y2="64.79" gradientUnits="userSpaceOnUse">
      <stop offset="0" stop-color="#3084f2"/>
      <stop offset="1" stop-color="#0d3fc2"/>
    </linearGradient>
    <linearGradient id="linear-gradient-5" x1="50.06" y1="47.98" x2="-5.21" y2="69.65" xlink:href="#linear-gradient"/>
    <linearGradient id="linear-gradient-6" x1="48.36" y1="12.32" x2="24.06" y2="38.46" gradientUnits="userSpaceOnUse">
      <stop offset="0" stop-color="#6fafff"/>
      <stop offset="1" stop-color="#4c7efb"/>
    </linearGradient>
  </defs>
  <g id="Layer_2" data-name="Layer 2">
    <g id="Email_Arroba" data-name="Email Arroba">
      <path class="cls-1" d="M21.58,27.97c-.26-.12-.56-.09-.78.09l-8.1,6.63c-.31.26-.36.72-.1,1.04.03.04.07.08.11.11l8.1,6.4c.32.25.78.2,1.03-.12.1-.13.16-.29.16-.46v-13.03c0-.28-.16-.54-.42-.67Z"/>
      <path class="cls-4" d="M59.3,34.69l-8.1-6.63c-.22-.18-.53-.22-.78-.09-.26.12-.42.38-.42.67v13.03c0,.41.33.74.74.74.17,0,.33-.06.46-.16l8.1-6.4c.32-.25.37-.72.12-1.03-.03-.04-.07-.08-.11-.11h0Z"/>
      <rect class="cls-5" x="20.53" y="12.43" width="30.94" height="39.04" rx=".74" ry=".74"/>
      <path class="cls-6" d="M59.16,34.6c-.25-.12-.56-.09-.78.08l-14.02,11.08-7.87-7.1c-.28-.25-.71-.25-.99,0l-7.87,7.1-14.02-11.08c-.22-.17-.52-.2-.78-.08-.25.13-.41.38-.41.66v23.57c0,.19.07.36.19.49.14.15.34.24.55.24h45.67c.21,0,.41-.09.55-.24.12-.13.19-.3.19-.49v-23.57c0-.28-.16-.54-.41-.66Z"/>
      <path class="cls-3" d="M36.49,38.66c-.28-.25-.71-.25-.99,0l-22.89,20.67s0,0,0,0c.14.15.34.24.55.24h45.67c.21,0,.41-.09.55-.24,0,0,0,0,0,0l-22.89-20.67Z"/>
      <path class="cls-2" d="M42.6,18.75c-1.92-1.82-4.45-2.76-7.09-2.62-4.78.24-8.76,4.18-9.06,8.96-.22,3.5,1.49,6.84,4.46,8.71,1.57.99,3.3,1.48,5.08,1.48s3.56-.48,5.29-1.44c.36-.2.48-.65.29-1-.2-.36-.65-.48-1-.29h0c-3,1.67-6.23,1.67-8.87,0-2.51-1.58-3.96-4.41-3.77-7.37.25-4.04,3.62-7.37,7.66-7.58,2.24-.12,4.38.67,6,2.22,1.63,1.55,2.52,3.63,2.52,5.87v1.47c0,1.22-.99,2.21-2.21,2.21-.41,0-.74-.33-.74-.74v-7.37c0-.41-.33-.74-.74-.74s-.74.33-.74.74v.82c-.94-.96-2.24-1.55-3.68-1.55-2.84,0-5.16,2.31-5.16,5.16s2.31,5.16,5.16,5.16c1.49,0,2.82-.64,3.77-1.65.25.94,1.11,1.65,2.13,1.65,2.03,0,3.68-1.65,3.68-3.68v-1.47c0-2.65-1.06-5.11-2.98-6.94ZM36,29.37c-2.03,0-3.68-1.65-3.68-3.68s1.65-3.68,3.68-3.68,3.68,1.65,3.68,3.68-1.65,3.68-3.68,3.68h0Z"/>
    </g>
  </g>
</svg>