<?xml version="1.0" encoding="UTF-8"?>
<svg id="Layer_1" data-name="Layer 1" xmlns="http://www.w3.org/2000/svg" xmlns:xlink="http://www.w3.org/1999/xlink" viewBox="0 0 72 72">
  <defs>
    <style>
      .cls-1 {
        fill: url(#linear-gradient-12);
      }

      .cls-1, .cls-2, .cls-3, .cls-4, .cls-5, .cls-6, .cls-7, .cls-8, .cls-9, .cls-10, .cls-11, .cls-12, .cls-13, .cls-14, .cls-15, .cls-16, .cls-17, .cls-18, .cls-19, .cls-20 {
        stroke-width: 0px;
      }

      .cls-2 {
        fill: url(#linear-gradient-17);
      }

      .cls-3 {
        fill: url(#linear-gradient);
      }

      .cls-4 {
        fill: url(#linear-gradient-6);
      }

      .cls-5 {
        fill: #ffe7c7;
      }

      .cls-6 {
        fill: url(#linear-gradient-15);
      }

      .cls-7 {
        fill: url(#linear-gradient-11);
      }

      .cls-8 {
        fill: url(#linear-gradient-5);
      }

      .cls-9 {
        fill: url(#linear-gradient-13);
      }

      .cls-10 {
        fill: #d3dbea;
      }

      .cls-11 {
        fill: url(#linear-gradient-16);
      }

      .cls-12 {
        fill: url(#linear-gradient-14);
      }

      .cls-13 {
        fill: url(#linear-gradient-2);
      }

      .cls-14 {
        fill: url(#linear-gradient-7);
      }

      .cls-15 {
        fill: url(#linear-gradient-3);
      }

      .cls-16 {
        fill: url(#linear-gradient-9);
      }

      .cls-17 {
        fill: url(#linear-gradient-8);
      }

      .cls-18 {
        fill: #ffcac0;
      }

      .cls-19 {
        fill: url(#linear-gradient-10);
      }

      .cls-20 {
        fill: url(#linear-gradient-4);
      }
    </style>
    <linearGradient id="linear-gradient" x1="29.25" y1="58.01" x2="42.31" y2="58.01" gradientUnits="userSpaceOnUse">
      <stop offset="0" stop-color="#3e3e59"/>
      <stop offset="1" stop-color="#5c5c85"/>
    </linearGradient>
    <linearGradient id="linear-gradient-2" x1="28.48" y1="61.03" x2="38.35" y2="57.4" gradientUnits="userSpaceOnUse">
      <stop offset="0" stop-color="#dea354"/>
      <stop offset="1" stop-color="#ffb655"/>
    </linearGradient>
    <linearGradient id="linear-gradient-3" x1="27.27" y1="52.13" x2="50.72" y2="32.81" gradientUnits="userSpaceOnUse">
      <stop offset="0" stop-color="#c4ccda"/>
      <stop offset="1" stop-color="#fff"/>
    </linearGradient>
    <linearGradient id="linear-gradient-4" x1="46.1" y1="32.06" x2="25.24" y2="54.06" gradientUnits="userSpaceOnUse">
      <stop offset="0" stop-color="#719de2"/>
      <stop offset="1" stop-color="#6279cc"/>
    </linearGradient>
    <linearGradient id="linear-gradient-5" x1="26.81" y1="38.85" x2="38.59" y2="31.55" gradientUnits="userSpaceOnUse">
      <stop offset="0" stop-color="#d3dbea"/>
      <stop offset="1" stop-color="#fff"/>
    </linearGradient>
    <linearGradient id="linear-gradient-6" x1="35.76" y1="27.06" x2="35.76" y2="32.39" gradientUnits="userSpaceOnUse">
      <stop offset="0" stop-color="#ddafa6"/>
      <stop offset="1" stop-color="#f4c1b7"/>
    </linearGradient>
    <linearGradient id="linear-gradient-7" x1="51.66" y1="24.43" x2="8" y2="68.09" gradientUnits="userSpaceOnUse">
      <stop offset="0" stop-color="#d37577"/>
      <stop offset="1" stop-color="#a85e5e"/>
    </linearGradient>
    <linearGradient id="linear-gradient-8" x1="58.34" y1="31.11" x2="14.68" y2="74.77" xlink:href="#linear-gradient-7"/>
    <linearGradient id="linear-gradient-9" x1="10.94" y1="48.91" x2="29.46" y2="44.38" xlink:href="#linear-gradient-2"/>
    <linearGradient id="linear-gradient-10" x1="31.33" y1="44.76" x2="12.42" y2="63.68" gradientUnits="userSpaceOnUse">
      <stop offset="0" stop-color="#f5888a"/>
      <stop offset="1" stop-color="#ca7171"/>
    </linearGradient>
    <linearGradient id="linear-gradient-11" x1="30.87" y1="23.21" x2="24.73" y2="23.21" xlink:href="#linear-gradient-6"/>
    <linearGradient id="linear-gradient-12" x1="39.43" y1="23.21" x2="46.14" y2="23.21" xlink:href="#linear-gradient-6"/>
    <linearGradient id="linear-gradient-13" x1="25.44" y1="28.63" x2="44.29" y2="9.79" gradientUnits="userSpaceOnUse">
      <stop offset="0" stop-color="#3e3e59"/>
      <stop offset="1" stop-color="#5c5c85"/>
    </linearGradient>
    <linearGradient id="linear-gradient-14" x1="25.81" y1="31.84" x2="39.6" y2="18.05" gradientUnits="userSpaceOnUse">
      <stop offset="0" stop-color="#e8b8af"/>
      <stop offset="1" stop-color="#ffcac0"/>
    </linearGradient>
    <linearGradient id="linear-gradient-15" x1="30.27" y1="24.43" x2="37.75" y2="18.92" gradientUnits="userSpaceOnUse">
      <stop offset="0" stop-color="#b59089"/>
      <stop offset="1" stop-color="#cca29a"/>
    </linearGradient>
    <linearGradient id="linear-gradient-16" x1="31.48" y1="26.07" x2="38.96" y2="20.56" xlink:href="#linear-gradient-15"/>
    <linearGradient id="linear-gradient-17" x1="25.83" y1="28.12" x2="38.34" y2="23.81" xlink:href="#linear-gradient-15"/>
  </defs>
  <path class="cls-10" d="M58.38,14.63h0c-.53,0-.95.42-.96.95l-.35,20.36h2.61l-.35-20.36c0-.53-.42-.95-.95-.95Z"/>
  <path class="cls-18" d="M53.7,39.34s.98-1.85,2.33-3.65c.92-1.21,2.68-1.34,3.77-.27.2.18.38.39.57.6.75.86.86,2.12.23,3.07l-2.73,4.08s-2.92-1.42-4.17-3.84Z"/>
  <path class="cls-3" d="M30.08,60.09h3.3c1.75-.42,3.33-.38,4.77,0h3.3l.86-4.14h-13.06l.83,4.14Z"/>
  <rect class="cls-13" x="33.38" y="56.62" width="4.77" height="3.46"/>
  <path class="cls-15" d="M30.89,32.32h9.76s1.51,9.94,1.46,24.4c0,0-5.44,1.17-12.77,0-.02,0-1.11-10.69,1.55-24.4Z"/>
  <path class="cls-20" d="M38.17,51.11l-2.4,2.35-2.4-2.35.45-5.49,1.02-12.37h1.82l.57,6.79-.04.06s.03-.03.04-.04l.92,11.05Z"/>
  <path class="cls-8" d="M38.44,30.76h-5.33l-2.21,1.57c.98,2.14,2.44,3.65,2.44,3.65l2.44-2.29,2.44,2.29s1.46-1.49,2.44-3.65l-2.21-1.57Z"/>
  <polygon class="cls-4" points="38.44 27.37 38.44 30.76 35.77 33.67 33.09 30.76 33.09 27.37 38.44 27.37"/>
  <path class="cls-14" d="M30.89,32.32s-.14,3.93-.32,9.25c-.62,2.5-.62,5.27-.24,8.21-.11,3.55-.2,7.17-.26,10.32h-5.86s-1.04-8.68-.02-16.73c.17-1.31.32-2.62.45-3.86.2-1.96,1.24-3.74,2.85-4.87,1.08-.8,2.36-1.67,3.39-2.32Z"/>
  <path class="cls-17" d="M53.7,39.34l-3.01,4.5-5.18-7.4c-.78-1.11-1.76-2.08-2.89-2.85-.54-.38-1.21-.8-1.96-1.28,0,0,.6,16.7.81,27.76h4.37s-.18-6.03-.54-12.74l4.62,3.72c.95.77,2.35.54,3.01-.47l4.94-7.41-4.17-3.84Z"/>
  <path class="cls-5" d="M10.99,41.59s7.56-3.06,10.63,3.81l-8.37-.93s-.63-2.03-2.26-2.88Z"/>
  <path class="cls-5" d="M32.25,41.59s-7.56-3.06-10.63,3.81l8.92-.62s.09-2.35,1.72-3.19Z"/>
  <path class="cls-16" d="M21.61,45.4s-3.87-3.46-10-.83c-.29.12-.48.41-.48.72v2.47c0,.32.33.53.62.38,1.46-.74,5.33-2.26,9.87-.32,4.53-1.94,8.41-.42,9.87.32.29.15.62-.06.62-.38v-2.47c0-.32-.18-.6-.48-.72-6.13-2.64-10,.83-10,.83Z"/>
  <path class="cls-19" d="M19.04,50.17v7.18c0,1.51,1.22,2.73,2.73,2.73h0c1.51,0,2.73-1.22,2.73-2.73v-8.1l-5.45.92Z"/>
  <path class="cls-18" d="M22.86,51.91h-2.49c-1.57,0-2.83-1.27-2.83-2.83h0c0-1.25,1.01-2.26,2.26-2.26h3.65c1.25,0,2.26,1.01,2.26,2.26h0c-.02,1.57-1.28,2.83-2.85,2.83Z"/>
  <path class="cls-7" d="M30.97,21.16h-1.54c-.95,0-1.72.77-1.72,1.72v.66c0,.95.77,1.72,1.72,1.72h1.54v-4.1Z"/>
  <path class="cls-1" d="M40.03,21.16h1.54c.95,0,1.72.77,1.72,1.72v.66c0,.95-.77,1.72-1.72,1.72h-1.54v-4.1Z"/>
  <path class="cls-9" d="M31.54,14.22s-1.91-.39-3.3,1.34c-1.3,1.61-1.76,5.29,2.73,7.18l9.76-1.46s.75.14,1.69.11c.9-.02,1.76-1.02,1.76-1.93,0-.44-.11-.96-.42-1.6-.3-.63-.51-1.3-.62-1.99-.24-1.46-1.3-3.98-5.75-3.98-4.58-.02-5.84,2.32-5.84,2.32Z"/>
  <path class="cls-12" d="M31.34,26.16c.57.81,1.54,1.67,3.19,2.15,1.34.39,2.8.21,3.95-.57.78-.53,1.6-1.36,2.12-2.68.23-.56.33-1.14.33-1.75v-1.85c0-.38-.21-.74-.56-.9-.75-.38-2.11-1.3-3.19-3.25-.21-.39-.54-.72-.93-.9-.05-.02-.09-.05-.14-.06-2.64-1.14-5.59.86-5.59,3.74v3.45c0,.95.27,1.87.81,2.64Z"/>
  <path class="cls-6" d="M34.19,22.31c-.29,0-.53-.24-.53-.53v-.48c0-.29.24-.53.53-.53s.53.24.53.53v.48c0,.3-.23.53-.53.53Z"/>
  <path class="cls-11" d="M37.62,22.31c-.29,0-.53-.24-.53-.53v-.48c0-.29.24-.53.53-.53s.53.24.53.53v.48c0,.3-.24.53-.53.53Z"/>
  <path class="cls-2" d="M35.91,25.68c-1.27,0-1.88-.57-2.08-.81-.18-.23-.15-.56.08-.74.23-.18.56-.15.74.08.06.08.41.44,1.27.44s1.21-.36,1.27-.44c.18-.23.51-.26.74-.08s.26.51.08.74c-.21.24-.81.81-2.08.81Z"/>
</svg>