<svg width="33" height="34" viewBox="0 0 33 34" fill="none" xmlns="http://www.w3.org/2000/svg">
<g id="fi_5968705" clip-path="url(#clip0_7806_58354)">
<g id="Group">
<path id="Vector" d="M16.1523 16.9502C16.1523 13.9887 18.5508 11.5879 21.5095 11.5879C24.4681 11.5879 26.8666 13.9888 26.8666 16.9502C26.8666 19.9118 24.4681 22.3125 21.5095 22.3125C18.5508 22.3125 16.1523 19.9117 16.1523 16.9502Z" fill="#00BCFF"/>
<path id="Vector_2" d="M5.4375 27.6757C5.4375 24.7142 7.83597 22.3134 10.7946 22.3134L13.6495 20.8047L16.1517 22.3134V27.6757C16.1517 30.6373 13.7533 33.038 10.7946 33.038C7.83597 33.038 5.4375 30.6372 5.4375 27.6757Z" fill="#00CF7F"/>
<path id="Vector_3" d="M16.1534 0.863281L13.2383 5.93258L16.1534 11.5879H21.4353C24.394 11.5879 26.7925 9.18712 26.7925 6.2256C26.7925 3.26408 24.394 0.863281 21.4353 0.863281H16.1534Z" fill="#FF7361"/>
<path id="Vector_4" d="M5.36328 6.2256C5.36328 9.18712 7.76175 11.5879 10.7204 11.5879L13.5622 12.6866L16.1527 11.5879V0.863281H10.7203C7.76175 0.863281 5.36328 3.26408 5.36328 6.2256Z" fill="#FF4D12"/>
<path id="Vector_5" d="M5.4375 16.9503C5.4375 19.9119 7.83597 22.3126 10.7946 22.3126H16.1517V11.5879H10.7946C7.83597 11.5879 5.4375 13.9888 5.4375 16.9503Z" fill="#B659FF"/>
</g>
</g>
<defs>
<clipPath id="clip0_7806_58354">
<rect width="32.1429" height="32.174" fill="white" transform="translate(0.0429688 0.859375)"/>
</clipPath>
</defs>
</svg>
