<svg width="20" height="20" viewBox="0 0 20 20" fill="none" xmlns="http://www.w3.org/2000/svg">
<g id="fi_5968875" clip-path="url(#clip0_7806_58370)">
<g id="Group">
<path id="Vector" d="M19.1207 0.421875H9.71094C9.71094 2.7696 11.6096 4.67014 13.955 4.67014H15.6862V6.3471C15.6862 8.69483 17.5849 10.5953 19.9303 10.5953V1.23242C19.9303 0.785231 19.5673 0.421875 19.1207 0.421875Z" fill="#2684FF"/>
<path id="Vector_2" d="M14.4586 5.11719H5.04883C5.04883 7.46492 6.94752 9.36542 9.29298 9.36542H11.0241V11.0424C11.0241 13.3901 12.9229 15.2906 15.2684 15.2906V5.92774C15.2684 5.4805 14.9053 5.11719 14.4586 5.11719Z" fill="url(#paint0_linear_7806_58370)"/>
<path id="Vector_3" d="M9.79648 9.8125H0.386719C0.386719 12.1602 2.28541 14.0607 4.63087 14.0607H6.36202V15.7377C6.36202 18.0855 8.26079 19.986 10.6062 19.986V10.623C10.6062 10.1758 10.2432 9.8125 9.79648 9.8125Z" fill="url(#paint1_linear_7806_58370)"/>
</g>
</g>
<defs>
<linearGradient id="paint0_linear_7806_58370" x1="15.0748" y1="5.12919" x2="11.0671" y2="9.25815" gradientUnits="userSpaceOnUse">
<stop offset="0.176" stop-color="#0052CC"/>
<stop offset="1" stop-color="#2684FF"/>
</linearGradient>
<linearGradient id="paint1_linear_7806_58370" x1="10.6822" y1="9.84882" x2="6.04862" y2="14.3528" gradientUnits="userSpaceOnUse">
<stop offset="0.176" stop-color="#0052CC"/>
<stop offset="1" stop-color="#2684FF"/>
</linearGradient>
<clipPath id="clip0_7806_58370">
<rect width="19.5455" height="19.5644" fill="white" transform="translate(0.386719 0.421875)"/>
</clipPath>
</defs>
</svg>
