<svg width="46" height="47" viewBox="0 0 46 47" fill="none" xmlns="http://www.w3.org/2000/svg">
<g id="Group">
<g id="Group_2">
<path id="Vector" fill-rule="evenodd" clip-rule="evenodd" d="M24.3624 7.67424V4.21682C24.3624 3.27969 23.5955 2.51273 22.6583 2.51273H14.209C13.2719 2.51273 12.5049 3.27969 12.5049 4.21682V7.67424C12.5049 8.29758 11.9988 8.80365 11.3755 8.80365C10.7523 8.80365 10.2461 8.29758 10.2461 7.67424V4.21682C10.2461 2.03744 12.0297 0.253906 14.209 0.253906H22.6583C24.8377 0.253906 26.6212 2.03744 26.6212 4.21682V7.67424C26.6212 8.29758 26.1152 8.80365 25.4918 8.80365C24.8685 8.80365 24.3624 8.29758 24.3624 7.67424Z" fill="#837683"/>
<path id="Vector_2" fill-rule="evenodd" clip-rule="evenodd" d="M35.0586 15.3984V29.6047C35.0586 31.0666 33.8608 32.2644 32.399 32.2644H4.60889C3.14705 32.2644 1.94922 31.0666 1.94922 29.6047V15.3984H35.0586Z" fill="#ECBA78"/>
<path id="Vector_3" fill-rule="evenodd" clip-rule="evenodd" d="M35.059 15.3984V29.6047C35.059 31.0666 33.8612 32.2644 32.3994 32.2644H30.2871C31.7511 32.2644 32.9468 31.0666 32.9468 29.6047V15.3984H35.059Z" fill="#E3A76F"/>
<path id="Vector_4" fill-rule="evenodd" clip-rule="evenodd" d="M2.77744 18.2412C2.48549 18.0566 2.20643 17.8591 1.94883 17.6466C0.991466 16.8631 0.328125 15.8821 0.328125 14.5941V8.1092C0.328125 7.35786 0.942055 6.74609 1.69123 6.74609H35.3158C36.065 6.74609 36.6789 7.35786 36.6789 8.1092V14.5941C36.6789 15.8799 36.0157 16.8609 35.0582 17.6466C34.8006 17.8591 34.5215 18.0566 34.2297 18.2412C28.6957 21.7423 8.27062 21.7165 2.77744 18.2412Z" fill="#E3A76F"/>
<path id="Vector_5" fill-rule="evenodd" clip-rule="evenodd" d="M27.994 6.74609H9.01367V11.1788C9.01367 12.1169 9.78214 12.8876 10.7224 12.8876H26.2853C27.2255 12.8876 27.994 12.1169 27.994 11.1788V6.74609Z" fill="#C48958"/>
<path id="Vector_6" fill-rule="evenodd" clip-rule="evenodd" d="M32.9453 6.74609H35.3151C36.0643 6.74609 36.6782 7.35786 36.6782 8.1092V14.5941C36.6782 15.8799 36.015 16.8609 35.0575 17.6466C34.7999 17.8591 34.5208 18.0566 34.229 18.2412C33.864 18.4709 33.4326 18.6876 32.9453 18.8874V6.74609Z" fill="#C48958"/>
<path id="Vector_7" fill-rule="evenodd" clip-rule="evenodd" d="M21.8539 21.2884C21.8539 23.1387 20.3534 24.6392 18.503 24.6392C16.6526 24.6392 15.1543 23.1387 15.1543 21.2884C15.1543 19.4444 16.6462 17.9375 18.503 17.9375C20.3598 17.9375 21.8539 19.4444 21.8539 21.2884Z" fill="#837683"/>
<path id="Vector_8" fill-rule="evenodd" clip-rule="evenodd" d="M21.8536 21.2884C21.8536 23.1387 20.3531 24.6392 18.5027 24.6392C18.3224 24.6392 18.1464 24.6242 17.9746 24.5962C19.5739 24.343 20.7974 22.9584 20.7974 21.2884C20.7974 19.6226 19.5782 18.2337 17.9746 17.9804C18.1464 17.9525 18.3224 17.9375 18.5027 17.9375C20.3595 17.9375 21.8536 19.4444 21.8536 21.2884Z" fill="#685E68"/>
</g>
<g id="Group_3">
<path id="Vector_9" fill-rule="evenodd" clip-rule="evenodd" d="M34.7845 34.1445C34.3048 34.8307 33.7401 35.4521 33.1055 35.9952L37.6729 40.4725L39.4119 38.6802L34.7845 34.1445Z" fill="#A79BA7"/>
<path id="Vector_10" fill-rule="evenodd" clip-rule="evenodd" d="M34.8163 34.1133C34.7265 34.4082 34.5582 34.6313 34.3184 34.7796L38.8558 39.2887L39.4121 38.679L34.8163 34.1133Z" fill="#837683"/>
<path id="Vector_11" fill-rule="evenodd" clip-rule="evenodd" d="M43.4596 46.2851L45.4218 44.2613C45.7667 43.9065 45.7584 43.3335 45.4035 42.9887L39.9666 37.7134C39.6118 37.3686 39.0388 37.3786 38.694 37.7334L36.7318 39.7555C36.387 40.1104 36.3954 40.6834 36.7501 41.0282L42.187 46.3035C42.5418 46.6483 43.1148 46.64 43.4596 46.2851Z" fill="#F1BA84"/>
<path id="Vector_12" fill-rule="evenodd" clip-rule="evenodd" d="M39.1623 37.7132L44.5993 42.9885C44.9541 43.3333 44.9624 43.9063 44.6176 44.2611L42.6554 46.2849C42.5821 46.3582 42.5005 46.4182 42.4122 46.4615C42.7537 46.6315 43.1801 46.5714 43.4599 46.2849L45.4221 44.2611C45.767 43.9063 45.7587 43.3333 45.4039 42.9885L39.967 37.7132C39.6871 37.4416 39.2707 37.3901 38.9375 37.555C39.0191 37.595 39.0941 37.6482 39.1623 37.7132Z" fill="#E3A76F"/>
<path id="Vector_13" fill-rule="evenodd" clip-rule="evenodd" d="M27.3681 19.2617C32.835 19.2617 37.2675 23.6925 37.2675 29.161C37.2675 34.6279 32.835 39.0604 27.3681 39.0604C21.8995 39.0604 17.4688 34.6279 17.4688 29.161C17.4688 23.6925 21.8995 19.2617 27.3681 19.2617Z" fill="#8AC9FE"/>
<path id="Vector_14" fill-rule="evenodd" clip-rule="evenodd" d="M27.3681 19.2617C32.835 19.2617 37.2675 23.6925 37.2675 29.161C37.2675 34.6279 32.835 39.0604 27.3681 39.0604C27.2065 39.0604 27.0466 39.0554 26.8867 39.0487C32.1304 38.7973 36.3064 34.4663 36.3064 29.161C36.3064 23.8541 32.1304 19.5232 26.8867 19.2733C27.0466 19.265 27.2065 19.2617 27.3681 19.2617Z" fill="#60B7FF"/>
<path id="Vector_15" fill-rule="evenodd" clip-rule="evenodd" d="M27.3675 21.5234C31.5851 21.5234 35.0064 24.9432 35.0064 29.1624C35.0064 33.38 31.5851 36.8014 27.3675 36.8014C23.1482 36.8014 19.7285 33.38 19.7285 29.1624C19.7285 24.9432 23.1482 21.5234 27.3675 21.5234Z" fill="#ECEFF1"/>
<path id="Vector_16" fill-rule="evenodd" clip-rule="evenodd" d="M27.3675 21.5234C27.5407 21.5234 27.7122 21.5284 27.8838 21.5401C23.9044 21.8066 20.7613 25.1164 20.7613 29.1624C20.7613 33.2068 23.9044 36.5183 27.8838 36.7831C27.7122 36.7948 27.5407 36.8014 27.3675 36.8014C23.1482 36.8014 19.7285 33.3817 19.7285 29.1624C19.7285 24.9432 23.1482 21.5234 27.3675 21.5234Z" fill="#D1D1D6"/>
</g>
</g>
</svg>
