<svg width="172" height="198" viewBox="0 0 172 198" fill="none" xmlns="http://www.w3.org/2000/svg">
<g opacity="0.1">
<path d="M68.7186 107.387V89.4884L85.7351 79.9233L102.752 89.4884V107.387L85.7351 116.952L68.7186 107.387Z" stroke="#D2614B" stroke-width="1.26923"/>
<path d="M50.2987 79.1785L85.4953 58.6127L121.169 79.1809V119.194L85.4953 139.395L50.2987 119.196V79.1785Z" stroke="#D2614B" stroke-width="1.26923"/>
<path d="M33.8632 69.5406L85.7338 40.3338L137.604 69.5406V127.191L85.7338 156.156L33.8631 127.191L33.8632 69.5406Z" stroke="#D2614B" stroke-width="1.26923"/>
<path d="M50.4297 79.1602L34.313 69.9012" stroke="#D2614B" stroke-width="1.26923"/>
<path d="M120.963 79.2109L137.53 69.693" stroke="#D2614B" stroke-width="1.26923"/>
<path d="M85.7344 139.012L85.7344 155.637" stroke="#D2614B" stroke-width="1.26923"/>
<path d="M85.7363 175.918L85.7363 196.48" stroke="#D2614B" stroke-width="1.26923"/>
<path d="M153.271 60.6328L170.923 50.4921" stroke="#D2614B" stroke-width="1.26923"/>
<path d="M18.2012 60.6484L0.549609 50.5077" stroke="#D2614B" stroke-width="1.26923"/>
<path d="M18.3886 137.201L85.736 22.5731L153.083 137.201H18.3886Z" stroke="#D2614B" stroke-width="1.26923"/>
<path d="M0.634625 50.3098L85.7365 0.734445L170.838 50.3098V148.134L85.7365 197.267L0.634615 148.134L0.634625 50.3098Z" stroke="#D2614B" stroke-width="1.26923"/>
</g>
</svg>
