<svg width="76" height="76" viewBox="0 0 76 76" fill="none" xmlns="http://www.w3.org/2000/svg">
<g id="Group">
<g id="Group_2">
<path id="Vector" fill-rule="evenodd" clip-rule="evenodd" d="M67.3359 7.44756C67.3359 3.48536 63.9862 0.273438 59.8541 0.273438H7.83719C3.70512 0.273438 0.355469 3.48536 0.355469 7.44756V51.4245C0.355469 53.3271 1.1437 55.1519 2.54684 56.4973C3.94982 57.8427 5.85288 58.5986 7.83719 58.5986H59.8541C61.8384 58.5986 63.7415 57.8427 65.1445 56.4973C66.5476 55.1519 67.3359 53.3271 67.3359 51.4245V7.44756Z" fill="#EAECEF"/>
<path id="Vector_2" fill-rule="evenodd" clip-rule="evenodd" d="M67.3359 7.45195C67.3359 5.5481 66.5472 3.72222 65.1432 2.37603C63.7393 1.02967 61.8352 0.273438 59.8496 0.273438C46.9619 0.273438 20.7294 0.273438 7.84174 0.273438C5.85617 0.273438 3.95202 1.02967 2.5481 2.37603C1.14417 3.72222 0.355469 5.5481 0.355469 7.45195V12.2905H67.3359V7.45195Z" fill="#595959"/>
<path id="Vector_3" d="M49.0753 8.06629C50.0617 8.06629 50.8615 7.26707 50.8615 6.28119C50.8615 5.29531 50.0617 4.49609 49.0753 4.49609C48.0888 4.49609 47.2891 5.29531 47.2891 6.28119C47.2891 7.26707 48.0888 8.06629 49.0753 8.06629Z" fill="#F76C82"/>
<path id="Vector_4" d="M55.1358 8.06629C56.1223 8.06629 56.922 7.26707 56.922 6.28119C56.922 5.29531 56.1223 4.49609 55.1358 4.49609C54.1493 4.49609 53.3496 5.29531 53.3496 6.28119C53.3496 7.26707 54.1493 8.06629 55.1358 8.06629Z" fill="#FDCD56"/>
<path id="Vector_5" d="M61.1983 8.06629C62.1848 8.06629 62.9845 7.26707 62.9845 6.28119C62.9845 5.29531 62.1848 4.49609 61.1983 4.49609C60.2118 4.49609 59.4121 5.29531 59.4121 6.28119C59.4121 7.26707 60.2118 8.06629 61.1983 8.06629Z" fill="#C6EA94"/>
</g>
<g id="Group_3">
<path id="Vector_6" fill-rule="evenodd" clip-rule="evenodd" d="M74.0522 55.2749C69.2651 55.2749 66.8613 61.0759 70.2472 64.4618C70.8703 65.0848 70.8703 66.0986 70.2472 66.7218L66.8097 70.1593C66.1865 70.7824 65.1727 70.7824 64.5496 70.1593C61.1638 66.7734 55.3628 69.1772 55.3628 73.9643C55.3628 74.8489 54.6478 75.561 53.7661 75.561H48.9043C48.0226 75.561 47.3076 74.8489 47.3076 73.9643C47.3076 69.1714 41.5095 66.7706 38.1208 70.1593C37.4977 70.7824 36.4867 70.7824 35.8637 70.1593L32.4232 66.7218C31.8002 66.0986 31.8002 65.0848 32.4232 64.4618C35.8091 61.0759 33.4083 55.2749 28.6182 55.2749C27.7366 55.2749 27.0215 54.5599 27.0215 53.6782V48.8164C27.0215 47.9347 27.7366 47.2197 28.6182 47.2197C33.4083 47.2197 35.8091 41.4188 32.4232 38.0329C31.8002 37.4098 31.8002 36.3988 32.4232 35.7758L35.8637 32.3353C36.4867 31.7123 37.4977 31.7123 38.1208 32.3353C41.5067 35.7212 47.3076 33.3204 47.3076 28.5303C47.3076 27.6487 48.0226 26.9336 48.9043 26.9336H53.7661C54.6478 26.9336 55.3628 27.6487 55.3628 28.5303C55.3628 33.3204 61.1638 35.7212 64.5496 32.3353C65.1727 31.7123 66.1865 31.7123 66.8097 32.3353L70.2472 35.7758C70.8703 36.3988 70.8703 37.4098 70.2472 38.0329C66.8613 41.4188 69.2651 47.2197 74.0522 47.2197C74.9368 47.2197 75.6489 47.9347 75.6489 48.8164V53.6782C75.6489 54.5599 74.9368 55.2749 74.0522 55.2749Z" fill="#FDCD56"/>
<path id="Vector_7" fill-rule="evenodd" clip-rule="evenodd" d="M51.3359 64.1094C58.418 64.1094 64.1973 58.3301 64.1973 51.2481C64.1973 44.163 58.418 38.3867 51.3359 38.3867C44.2509 38.3867 38.4746 44.163 38.4746 51.2481C38.4746 58.3301 44.2509 64.1094 51.3359 64.1094Z" fill="#F4F6F8"/>
</g>
<g id="Group_4">
<g id="Group_5">
<path id="Vector_8" fill-rule="evenodd" clip-rule="evenodd" d="M50.2383 46.1488C50.2383 45.5429 50.7304 45.0508 51.3363 45.0508C51.9423 45.0508 52.4344 45.5429 52.4344 46.1488V56.3449C52.4344 56.9509 51.9423 57.4429 51.3363 57.4429C50.7304 57.4429 50.2383 56.9509 50.2383 56.3449V46.1488Z" fill="#CAD0D7"/>
<path id="Vector_9" fill-rule="evenodd" clip-rule="evenodd" d="M43.9629 46.1488C43.9629 45.5429 44.455 45.0508 45.0609 45.0508C45.6669 45.0508 46.159 45.5429 46.159 46.1488V56.3449C46.159 56.9509 45.6669 57.4429 45.0609 57.4429C44.455 57.4429 43.9629 56.9509 43.9629 56.3449V46.1488Z" fill="#CAD0D7"/>
<path id="Vector_10" fill-rule="evenodd" clip-rule="evenodd" d="M56.5117 46.1488C56.5117 45.5429 57.0038 45.0508 57.6098 45.0508C58.2157 45.0508 58.7078 45.5429 58.7078 46.1488V56.3449C58.7078 56.9509 58.2157 57.4429 57.6098 57.4429C57.0038 57.4429 56.5117 56.9509 56.5117 56.3449V46.1488Z" fill="#CAD0D7"/>
</g>
<path id="Vector_11" d="M45.0614 54.7791C46.0144 54.7791 46.7869 54.0066 46.7869 53.0536C46.7869 52.1007 46.0144 51.3281 45.0614 51.3281C44.1085 51.3281 43.3359 52.1007 43.3359 53.0536C43.3359 54.0066 44.1085 54.7791 45.0614 54.7791Z" fill="#F76C82"/>
<path id="Vector_12" d="M51.3368 51.0135C52.2898 51.0135 53.0623 50.241 53.0623 49.288C53.0623 48.335 52.2898 47.5625 51.3368 47.5625C50.3839 47.5625 49.6113 48.335 49.6113 49.288C49.6113 50.241 50.3839 51.0135 51.3368 51.0135Z" fill="#FDCD56"/>
<path id="Vector_13" d="M57.6103 54.7791C58.5632 54.7791 59.3357 54.0066 59.3357 53.0536C59.3357 52.1007 58.5632 51.3281 57.6103 51.3281C56.6573 51.3281 55.8848 52.1007 55.8848 53.0536C55.8848 54.0066 56.6573 54.7791 57.6103 54.7791Z" fill="#C6EA94"/>
</g>
</g>
</svg>
