<svg width="34" height="33" viewBox="0 0 34 33" fill="none" xmlns="http://www.w3.org/2000/svg">
<g clip-path="url(#clip0_7806_58363)">
<path d="M16.9299 0.445578C15.6085 0.451722 14.3466 0.564535 13.2362 0.761214C9.9653 1.33966 9.3714 2.55033 9.3714 4.78309V7.73188H17.101V8.71477H9.3714H6.47053C4.22411 8.71477 2.25701 10.0663 1.64179 12.6375C0.932089 15.5845 0.900639 17.4236 1.64179 20.5009C2.19126 22.7914 3.5034 24.4235 5.74982 24.4235H8.40744V20.8885C8.40744 18.3347 10.6149 16.0822 13.2362 16.0822H20.9569C23.106 16.0822 24.8217 14.3109 24.8217 12.1505V4.78309C24.8217 2.68632 23.0545 1.11118 20.9569 0.761214C19.629 0.539958 18.2513 0.439433 16.9299 0.445578ZM12.7497 2.81725C13.5482 2.81725 14.2001 3.48058 14.2001 4.29611C14.2001 5.1088 13.5482 5.76598 12.7497 5.76598C11.9485 5.76598 11.2993 5.1088 11.2993 4.29611C11.2993 3.48051 11.9485 2.81725 12.7497 2.81725Z" fill="url(#paint0_linear_7806_58363)"/>
<path d="M25.7853 8.71497V12.1507C25.7853 14.8144 23.5292 17.0562 20.9566 17.0562H13.2359C11.1211 17.0562 9.37109 18.868 9.37109 20.9879V28.3553C9.37109 30.4521 11.1926 31.6854 13.2359 32.287C15.6827 33.0071 18.029 33.1373 20.9566 32.287C22.9025 31.723 24.8213 30.5881 24.8213 28.3553V25.4065H17.1007V24.4236H24.8213H28.6862C30.9326 24.4236 31.7697 22.8551 32.551 20.5009C33.358 18.0773 33.3237 15.7466 32.551 12.6375C31.9958 10.399 30.9355 8.71484 28.6862 8.71484H25.7853V8.71497ZM21.4431 27.3724C22.2443 27.3724 22.8935 28.0296 22.8935 28.8423C22.8935 29.6579 22.2443 30.3212 21.4431 30.3212C20.6446 30.3212 19.9927 29.6579 19.9927 28.8423C19.9926 28.0296 20.6446 27.3724 21.4431 27.3724Z" fill="url(#paint1_linear_7806_58363)"/>
</g>
<defs>
<linearGradient id="paint0_linear_7806_58363" x1="0.340088" y1="1.36762" x2="18.1823" y2="16.5686" gradientUnits="userSpaceOnUse">
<stop stop-color="#5A9FD4"/>
<stop offset="1" stop-color="#306998"/>
</linearGradient>
<linearGradient id="paint1_linear_7806_58363" x1="24.8752" y1="26.0456" x2="18.4738" y2="17.0771" gradientUnits="userSpaceOnUse">
<stop stop-color="#FFD43B"/>
<stop offset="1" stop-color="#FFE873"/>
</linearGradient>
<clipPath id="clip0_7806_58363">
<rect width="32.4" height="32.4314" fill="white" transform="translate(0.917969 0.451172)"/>
</clipPath>
</defs>
</svg>
