<svg width="90" height="90" viewBox="0 0 90 90" fill="none" xmlns="http://www.w3.org/2000/svg">
<g id="question-mark">
<path id="Vector" d="M33.7834 23.3659C30.2378 23.2564 28.5815 28.0817 28.2291 31.0083C27.819 34.4145 28.8721 38.1122 31.2341 40.577L34.1906 36.2635C32.7897 35.3068 30.9849 35.1732 29.5515 34.1792C27.9827 33.0915 27.7149 31.969 28.1224 30.1491C28.4949 28.486 29.1741 26.6661 30.1282 25.2534C31.105 23.807 32.7765 23.3527 34.3719 23.0397C38.2542 22.2776 41.8294 21.3899 45.7604 22.4403C49.3883 23.4096 52.0125 25.5942 53.7614 28.6685C53.9925 29.0751 54.1568 29.5217 54.4066 30.1628C54.5644 30.568 54.6951 30.983 54.8262 31.3974C54.8033 31.3253 55.156 32.6917 55.0187 32.0854C55.1945 32.858 55.3266 33.6399 55.4144 34.4275C55.4569 34.8108 55.4738 35.1965 55.491 35.5816C55.4913 35.5882 55.4887 36.8681 55.5154 36.1439C55.4606 37.6245 55.1884 39.0904 54.7818 40.512C54.9527 39.9148 54.5328 41.1408 54.5486 41.1011C54.4021 41.4721 54.226 41.8302 54.0496 42.1874C53.6125 43.0716 53.5835 43.0458 53.0736 43.6789C52.9079 43.8773 52.7351 44.0696 52.5554 44.2553C51.7621 45.106 53.1138 43.8533 52.0438 44.7048C51.3015 45.2953 50.4939 45.8063 49.7121 46.3405C47.9871 47.5196 46.42 48.9303 44.9692 50.431C43.3884 52.0664 42.378 53.9205 41.8282 56.1215C41.33 58.1168 40.7183 60.4905 41.273 62.4699C41.9429 64.8603 44.633 65.2275 46.3753 63.8277C48.2856 62.2932 48.2833 59.7508 48.9163 57.5578C49.2782 56.3029 50.6545 55.0045 51.8573 53.9769C53.3363 52.7133 55.0548 51.7747 56.5883 50.583C58.2766 49.2714 59.5302 47.6498 60.5996 45.8097C64.4306 39.2194 63.5823 30.4887 59.7137 24.1697C55.1164 16.6601 45.4111 14.0254 37.2005 16.1448C35.1525 16.6736 33.024 17.1621 31.0279 17.8584C29.1308 18.5199 27.5376 19.7872 26.1788 21.2388C24.9442 22.5584 24.2237 24.5392 23.635 26.2181C22.8491 28.4567 22.0992 30.8189 22.55 33.2081C22.9977 35.5818 24.6617 37.3089 26.6213 38.5722C28.1577 39.5622 30.0129 39.8074 31.5263 40.737C33.0905 41.698 34.8158 40.4588 35.2856 38.953C35.725 37.5446 34.4401 36.1939 34.1995 34.8275C34.0206 33.8122 33.8258 32.7863 33.6735 31.7675C33.5233 30.7617 33.7438 29.7364 34.0361 28.7777C34.4347 27.4704 35.3665 26.7606 35.55 25.3456C35.6791 24.3479 34.7493 23.3958 33.7834 23.3659Z" fill="#FFDBD3"/>
<path id="Vector_2" d="M32.8773 37.5361C32.5794 36.7636 34.1897 34.8184 34.6113 34.2267C35.6159 32.8157 36.5087 31.203 37.7041 29.9518C36.7542 29.6443 35.8046 29.3362 34.8551 29.0284C34.9147 29.5836 34.2712 30.7685 33.9924 31.2513C33.6174 31.896 33.262 32.5519 32.9264 33.218C32.2754 34.5198 31.5991 36.0053 31.4184 37.4571C31.2355 38.9304 33.6216 39.4445 33.9743 37.983C34.5149 35.7412 35.1711 33.4908 36.1998 31.4165C36.7396 30.3285 37.5371 29.5296 38.6565 29.0437C39.2737 28.7755 40.4733 28.2718 41.0862 28.3746L39.4019 25.9213C39.0807 26.6234 38.2805 26.9864 37.6848 27.4444C36.6728 28.2232 35.5913 28.7859 34.8347 29.852C33.8461 31.2452 35.3544 33.2764 36.9667 32.5134C37.7141 32.1599 38.2739 31.6662 38.8544 31.088C39.6299 30.3159 40.494 30.0098 41.5623 29.819C43.4815 29.4759 45.9379 30.2702 47.1453 31.8047C49.6191 34.9492 49.1041 38.9572 46.6875 41.9306C45.3629 43.56 44.2016 45.29 42.9162 46.9519C41.3876 48.9284 39.7196 51.0579 38.707 53.3545C37.924 55.1311 37.7912 57.349 37.4884 59.2578C37.1391 61.4611 37.1528 63.6922 39.2513 64.9549C40.2513 65.5567 41.2683 64.7699 41.4037 63.7474C41.5499 62.641 41.5049 61.5349 41.6374 60.4311C41.763 59.3856 42.0277 58.3591 42.1978 57.3206C42.3719 56.2573 42.4995 55.2659 43.1015 54.3451C43.8695 53.1709 44.6694 52.0208 45.5237 50.9081C47.0386 48.9353 48.5092 46.8059 50.1962 44.9837C51.945 43.0939 53.4335 40.5926 53.566 37.9651C53.7736 33.8396 51.362 28.952 47.6102 27.091C45.5613 26.0751 43.0983 25.8892 40.8596 26.1702C39.6953 26.3168 38.3175 26.8306 37.3829 27.5493C36.5925 28.1568 35.9982 28.9563 35.1614 29.5083L37.6989 31.9243C38.3404 30.7449 39.1174 30.1302 40.2571 29.4526C41.4754 28.7284 42.3495 28.4402 42.9753 27.0728C43.5277 25.8659 42.3489 24.7971 41.2913 24.6198C38.8908 24.2166 36.1278 26.8266 34.8106 28.5646C33.8903 29.7788 33.4217 31.2366 32.9422 32.6648C32.4411 34.1583 31.8959 35.5998 31.4864 37.1272L34.042 37.6528C34.0334 35.9722 34.8909 34.5078 35.7565 33.1229C36.6616 31.6746 38.3129 30.694 38.0786 28.7902C37.9019 27.3528 36.2127 26.8079 35.2299 27.8671C33.7065 29.5083 32.906 31.6579 32.1325 33.7278C31.6829 34.9314 30.6495 37.3154 32.1394 38.1916C32.5455 38.4304 33.0391 37.9557 32.8773 37.5361Z" fill="#FFDBD3"/>
<path id="Vector_3" d="M30.3301 30.6997L31.6359 32.8622C31.9332 32.6456 32.2288 32.4266 32.5227 32.2052C32.9557 31.8819 33.3466 31.454 33.757 31.1C34.7077 30.2801 35.7672 29.508 36.7987 28.7981C37.7219 28.163 38.6887 27.6826 39.7731 27.4196C40.8789 27.1515 42.3264 27.7156 43.3517 27.9786C44.3887 28.2447 45.4341 28.4726 46.4573 28.7889C46.4459 28.7852 47.6753 29.3286 47.0903 29.0275C47.1709 29.0688 48.2174 29.8422 47.5592 29.2947C48.2016 29.8292 48.733 30.5824 49.245 31.2382C48.8162 30.6891 49.6006 31.8305 49.5848 31.8049C49.8928 32.3055 50.1332 32.8426 50.3609 33.3832C50.8762 34.6071 51.3913 36.8144 51.3681 38.4042C51.3371 40.5164 50.4521 42.3032 49.526 44.1493C48.6576 45.8802 47.8018 47.6329 46.8589 49.3229C46.0386 50.7931 45.9431 52.5889 47.4841 53.6502C47.8041 53.8696 48.1646 54.023 48.5444 54.1015C48.9242 54.1801 49.3158 54.1821 49.6964 54.1077C50.1863 54.0098 50.643 53.7877 51.0228 53.4625C51.9196 52.5466 51.654 52.6679 50.2261 53.8266C52.4625 53.27 54.1075 50.425 55.2455 48.6171C56.7684 46.1986 58.3572 43.7433 58.9213 40.8888C59.8061 36.4104 58.6236 31.0351 56.2413 27.173C55.0947 25.3146 53.6908 23.6246 51.9279 22.3429C49.6895 20.7158 46.4186 20.5617 43.7959 20.5707C41.6002 20.5778 39.3675 20.9057 37.3551 21.8041C35.3355 22.7055 33.5649 24.3982 32.159 26.0793C30.9545 27.5196 29.3602 29.8623 29.3398 31.8268L31.8567 31.7429L31.8395 31.65C31.6818 30.783 31.0858 30.637 30.3301 30.6997Z" fill="#FFDBD3"/>
<path id="Vector_4" d="M38.9137 22.0269C38.9008 21.7409 38.7479 21.5427 38.4554 21.4317C37.9719 21.1291 37.3745 21.0717 36.8267 20.9849C35.6276 20.7946 34.3459 21.1426 33.208 21.495C31.2394 22.105 29.5577 23.3393 28.0351 24.6914C25.0539 27.3387 22.7142 31.099 24.6747 35.0776C25.8279 37.418 29.3021 37.0536 30.1051 34.6437C30.8981 32.2637 31.1376 29.8687 32.2736 27.589C33.0617 26.0079 33.937 24.9279 34.8751 23.452C35.8304 21.9493 34.7991 19.7075 32.9306 19.7109C29.2224 19.7181 28.0285 22.5364 26.7442 25.3866C26.1896 26.6177 25.7281 27.8674 25.4233 29.1848C25.1333 30.436 24.9968 31.6332 24.4955 32.8238L29.9256 32.3898C29.4943 31.3179 31.7112 29.3399 32.5119 28.5968C33.2627 27.8999 34.0503 27.2157 34.8923 26.6326C35.5318 26.1901 36.2809 26.0234 36.9538 25.659C37.3691 25.4441 37.7648 25.1929 38.1362 24.9084C38.3051 24.7966 38.8718 23.9416 38.9622 23.9227C39.9877 23.7054 39.7675 22.2933 38.9137 22.0269ZM41.2866 59.963C39.0726 59.8184 38.4178 62.0921 37.587 63.7103C36.6303 65.5725 37.2233 67.6772 37.1766 69.669C37.1324 71.5599 39.8742 72.3042 40.9582 70.8932C40.2717 71.0498 40.2212 71.1481 40.8074 71.1881C41.0684 71.2464 41.3293 71.303 41.5912 71.3576C42.3007 71.5088 43.0389 71.4668 43.7456 71.33C45.2389 71.0409 46.8679 70.1366 47.6047 68.7695C48.303 67.4738 48.1229 66.1565 48.3096 64.7687C48.4865 63.452 48.5505 61.8729 48.048 60.6231C47.3239 58.821 44.2759 57.7902 43.3378 60.1064C42.6477 61.8091 41.8513 63.5885 40.3907 64.7607L44.3946 66.6881C44.6828 64.277 45.0493 61.4504 42.1828 60.4032C40.7535 59.8814 39.3714 60.0377 38.3628 61.253C37.3848 62.4318 37.4777 64.2239 37.2377 65.6584L41.4527 65.2389C40.1957 62.6715 42.7381 59.6512 41.4122 57.1283C40.9677 56.2826 40.0491 55.7992 39.1156 56.1958C38.9006 56.2877 38.706 56.4215 38.5431 56.5894C38.3801 56.7574 38.2522 56.9561 38.1666 57.174C38.1009 57.3427 38.1795 59.0874 38.4247 58.902C38.0401 57.5356 37.7378 57.2947 37.5184 58.1796C37.2589 58.8069 37.0234 59.5089 36.9357 60.1843C36.8416 60.9067 36.778 61.624 36.7605 62.3525C36.7237 63.8698 36.9125 65.3101 37.3475 66.766C37.8807 68.5485 40.7819 68.6937 41.4019 66.8918C41.6801 66.084 41.8763 65.2596 42.0959 64.4325C42.1266 64.3158 42.5674 63.5781 42.2938 63.9213L41.3531 64.7331C40.1911 65.4104 40.0623 63.652 40.0155 64.4903C39.9897 64.9544 39.8157 65.3929 39.6909 65.836C39.0106 68.256 41.6953 69.7636 43.5841 68.3796C45.5377 66.9479 46.8226 64.7365 47.8344 62.5784L43.1241 62.0614C43.3661 62.7689 43.1663 63.6575 43.1149 64.39C43.0627 65.1325 43.4553 65.9978 43.2985 66.7125C43.3931 66.2809 43.0742 66.6252 42.7811 66.7571C42.3228 66.9634 41.847 66.9597 41.3557 66.9493C40.2143 66.9252 39.0528 67.0025 38.1118 67.7132L41.2706 70.4073C41.7744 68.8871 41.9015 67.1944 41.847 65.5952C41.7879 63.8698 42.8875 62.4657 42.2089 60.686C42.071 60.3236 41.6841 59.9891 41.2866 59.9633V59.963ZM41.6901 84.9989L41.4707 81.0079C41.8203 81.0424 41.8608 80.9705 41.5915 80.7909L42.9778 81.5907C42.7137 81.3398 42.7151 81.3861 42.9827 81.7301C42.8204 81.4412 42.8313 81.4714 43.0157 81.8212C42.9268 81.5585 42.878 81.2743 42.8149 81.0042C42.615 80.1498 42.8215 81.2993 42.7739 80.7777C42.7722 80.4285 42.7493 80.5116 42.7045 81.0269C42.7834 80.6935 42.7389 80.7849 42.5712 81.3001C42.4751 81.4984 41.605 82.3985 41.1991 82.3281C40.832 82.1988 40.8151 82.2143 41.1475 82.3749C41.4773 82.6474 41.4464 82.6143 41.0549 82.2758C41.2969 82.5565 41.2625 82.4976 40.9522 82.0993C40.8057 81.8091 40.7479 81.482 40.7859 81.159C40.7644 81.5349 40.7988 81.4522 40.8891 80.9113L40.8232 81.13C41.1145 80.3403 41.6749 79.8762 42.504 79.7377C39.3207 80.1162 38.5386 84.7983 41.5898 86.0306C40.6161 85.4409 40.6161 85.4409 41.5898 86.0306C42.0658 86.2236 42.566 86.3501 43.0765 86.4065C44.1999 86.5312 45.4855 86.0662 46.2312 85.2196C47.4859 83.7948 47.9322 82.0973 47.6006 80.2237C46.9057 76.2944 41.9723 74.8825 38.7723 76.6582C36.2264 78.0712 36.4218 80.907 37.0237 83.321C37.435 84.9702 38.5552 86.2973 40.2054 86.77C40.8986 86.9686 41.734 86.941 42.426 86.7723C43.9111 86.4099 44.6372 85.4875 45.0932 84.0822C45.3625 83.2526 44.8841 82.1252 44.2472 81.5944L44.0063 81.3938C42.1048 79.8093 39.4987 82.2413 40.8315 84.2825C41.0644 84.6388 41.4403 84.7185 41.6901 84.9992V84.9989Z" fill="#FFDBD3"/>
<path id="Vector_5" d="M39.0197 83.5774C38.9124 83.7338 39.4619 84.3321 39.6062 84.5068C39.8628 84.818 40.2124 85.0252 40.5554 85.2252C41.7256 85.9069 43.2 85.7985 44.2003 84.8545C45.3827 83.7381 45.4573 81.7779 44.3227 80.5977C44.0483 80.312 43.7701 80.0356 43.4222 79.8304C43.1149 79.6987 42.8064 79.5697 42.4967 79.4436C42.0026 79.3042 41.4859 79.2636 40.9762 79.324C40.0435 79.3459 39.1568 80.0706 38.7805 80.8885C38.5788 81.3251 38.4972 81.8078 38.5442 82.2866C38.5899 82.7505 38.7536 83.195 39.0197 83.5774Z" fill="#D2614B"/>
<path id="Vector_6" d="M35.7951 16.2369C36.9334 16.3088 38.072 16.0746 39.1899 16.2415C40.6038 16.4524 42.0048 16.3685 43.4258 16.4858C46.1532 16.7099 48.9652 17.5789 51.4572 18.6802C54.0469 19.8248 56.0513 21.7091 57.7457 23.931C58.4976 24.917 59.2708 25.7995 59.9144 26.8732C60.9101 28.5336 61.1209 30.4191 61.2451 32.312C61.3271 33.5603 61.5864 34.7877 61.6311 36.0478C61.673 37.2206 61.5095 38.3534 61.4596 39.5213C61.3357 42.4091 59.9892 44.915 58.3709 47.2269C57.3711 48.6543 56.4996 50.2079 55.2976 51.4726C54.4209 52.3951 53.3041 53.0471 52.2926 53.8127C51.3531 54.5236 50.6338 55.5401 49.8199 56.3941C49.0191 57.2347 48.574 58.0172 48.913 59.1512C49.0527 59.619 49.7516 59.6673 50.0166 59.2998C51.0012 57.9339 52.7388 57.7488 54.0386 56.8539C55.2623 56.0114 56.396 55.0619 57.6421 54.2541C60.3578 52.4939 62.4726 49.5067 64.3703 46.9223C68.4066 41.4249 68.9504 34.1963 66.4171 27.9896C63.8977 21.8168 58.4231 17.2223 52.2114 15.0334C49.3191 14.0144 46.4759 13.8149 43.4557 14.1492C41.9718 14.313 40.461 14.3236 38.9711 14.469C37.6596 14.5972 36.8216 15.1938 35.7166 15.8107C35.5302 15.9151 35.5617 16.2223 35.7951 16.2369Z" fill="#E9A091"/>
<path id="Vector_7" d="M48.4027 58.3605C47.2209 59.6778 47.9439 62.1009 48.0523 63.6964C48.1504 65.1411 48.7096 67.9866 47.5885 69.0741C46.8526 69.7882 47.8214 71.0954 48.6964 70.5141C49.5909 69.9198 50.6925 69.3887 51.7413 69.1456C52.6521 68.9341 53.4437 68.5953 54.0878 67.903C55.0041 66.9185 53.4483 65.3988 52.4353 66.2492C51.9604 66.6475 51.1588 66.7716 50.5941 67.0538C49.5984 67.551 48.6844 68.2904 47.7764 68.9289L48.8843 70.3687C51.7485 67.4438 50.024 62.5481 50.1568 59.0051C50.1906 58.0958 48.9646 57.734 48.4027 58.3605Z" fill="#E9A091"/>
<path id="Vector_8" d="M51.7125 66.0091L51.3781 65.6705L51.6244 66.5784C51.876 65.113 52.2496 63.6831 52.2843 62.1956C52.3127 60.9944 52.422 59.7234 52.847 58.5882L49.9255 57.5594C49.4041 59.1975 49.871 60.9091 50.1767 62.5431C50.5002 64.2716 50.2759 65.9927 51.3038 67.5126C51.9376 68.4497 53.6592 67.7957 53.4074 66.6525C53.2698 66.0956 53.2239 65.526 53.2692 64.9441L51.4753 64.488C51.483 65.7309 51.6683 66.7516 52.7011 67.5367C53.2276 67.9368 53.9368 67.8586 54.2773 67.2543C55.0593 65.8651 54.3742 63.4552 54.3481 61.9255C54.33 60.8458 54.1689 59.778 54.1307 58.6997C54.0929 57.6356 54.8529 56.8968 54.7221 55.8838C54.655 55.3616 54.201 55.3159 53.8018 55.2639C51.5166 54.9668 52.1404 59.6575 52.2674 60.6751C52.4002 61.737 52.3887 62.8109 52.4874 63.8759C52.5534 64.5886 52.8926 65.6746 52.4837 66.318L54.0599 66.0355C53.5322 65.5858 53.4576 65.134 53.3896 64.4693C53.2973 63.5635 52.0847 63.1092 51.5958 64.0133C51.1656 64.8081 51.161 65.7432 51.0709 66.6255L53.328 66.3459C52.925 65.0679 52.9959 63.7055 52.8565 62.3885C52.7309 61.2007 52.3512 59.7323 52.847 58.5882C53.6426 56.7528 50.9685 55.363 50.0574 57.1818C48.5489 60.1935 49.3203 63.4408 49.8288 66.5798L50.0628 65.6823L49.8538 65.895C49.0771 66.6873 49.4328 68.1095 50.6293 68.1991C51.7351 68.2819 52.5436 66.8514 51.7125 66.0094V66.0091ZM38.1311 35.7343C37.6938 36.6398 36.6949 37.0605 35.9581 37.6853C35.1734 38.3506 34.5001 39.1883 33.9052 40.0211L35.0633 40.6835C35.6874 38.6034 36.0857 36.514 37.4081 34.7282C38.5519 33.1836 39.7398 31.8976 41.5293 31.1139L40.2307 29.6394C39.4966 31.6453 39.0583 33.7733 38.9775 35.9099C38.9654 36.2252 39.2413 36.7295 38.7652 36.8726C38.3428 36.9999 37.9499 37.1166 37.5412 37.2876C36.6868 37.6453 35.893 38.1678 35.2182 38.7997L36.6934 39.6863C36.9358 38.5759 37.7356 37.7862 38.2811 36.8212C38.9138 35.7018 39.5315 34.538 40.303 33.5078L37.7529 33.0911C37.9579 33.8287 37.6694 34.5934 37.7967 35.3478C37.9654 36.3481 38.3591 37.3436 38.8604 38.221C39.1031 38.646 39.7332 38.7762 40.1602 38.6126C42.2911 37.7962 40.8198 34.1704 40.2692 32.789C40.186 32.5815 39.8711 32.6218 39.8054 32.8178C39.6222 33.3632 39.4415 33.9405 39.3936 34.5133C39.3598 34.9199 39.3526 35.3294 39.3196 35.7366C39.3044 35.9378 39.2769 36.1375 39.2376 36.3355C39.1292 36.9657 38.9921 36.5433 39.6669 36.4441L40.8709 37.752C41.0349 36.837 40.6974 36.1455 40.4765 35.2682C40.2531 34.3805 40.683 33.4014 40.4722 32.468C40.2586 31.5209 38.8504 30.9208 38.1489 31.7691C37.2094 32.9051 36.7052 34.0949 36.3005 35.5044C35.9406 36.7585 35.3404 37.9261 34.9862 39.1874C34.7381 40.0705 35.8064 40.6636 36.4614 40.0739C37.2249 39.3871 38.1268 38.7405 39.151 38.5394C39.9718 38.3779 40.5049 38.0152 40.786 37.2241C41.0627 36.4453 40.8224 35.2475 40.8697 34.4282C40.9558 32.9497 41.3553 31.8105 42.1388 30.5751C42.5431 29.9371 41.8732 28.902 41.1198 29.0446C38.9264 29.4595 37.456 30.7889 36.263 32.6367C35.6687 33.5569 35.156 34.4748 34.7645 35.499C34.2064 36.958 34.2723 38.6629 33.8201 40.1708C33.6116 40.8657 34.5055 41.495 34.9781 40.8329C35.7361 39.7716 36.5905 38.8224 37.6671 38.0816C38.4065 37.5729 38.98 37.0643 39.3744 36.2473C39.7529 35.4628 38.5063 34.957 38.1311 35.7343ZM41.9503 88.1397C41.7642 88.338 42.6037 88.2632 42.7459 88.2661C43.0585 88.2727 43.3769 88.3 43.6883 88.2529C44.9416 88.0632 46.1639 87.6092 47.3334 87.1264C49.6149 86.1852 50.974 84.3239 51.2797 81.8979C51.5906 79.4291 50.5427 76.985 48.6183 75.4481C47.6934 74.7093 46.5614 74.6418 45.4312 74.5946C44.7497 74.5659 44.0913 74.6044 43.4302 74.7708C42.7514 74.9415 42.0915 75.3622 41.3676 75.3116L41.4576 76.3904C42.8836 75.7392 45.8329 76.7784 46.8184 77.8552C47.5356 78.6388 47.7834 79.8547 47.889 80.8737C47.9535 81.4947 47.6165 81.9097 47.6151 82.485C47.6131 83.0816 47.6363 83.6667 47.5322 84.2541C47.5093 84.3834 47.6928 84.4242 47.7461 84.3139C48.1152 83.5552 48.8101 83.2046 49.0855 82.4034C49.2776 81.8459 49.2567 81.262 49.2277 80.6841C49.1574 79.296 48.5076 77.8075 47.5483 76.816C46.7094 75.949 45.6009 75.6728 44.4675 75.4223C43.3869 75.1837 42.1276 74.8538 41.0708 75.3366C40.6214 75.5418 40.556 76.3732 41.1608 76.4154C41.5385 76.4416 41.7223 76.4436 42.1044 76.3941C42.5463 76.3372 43.6636 76.9873 44.2266 77.2031C45.0517 77.5192 45.7914 77.9681 46.5582 78.3986C48.1098 79.2693 48.5933 81.8373 47.874 83.367C47.067 85.0832 44.9545 86.3427 43.144 86.6404C42.4336 86.7574 41.1628 86.7137 41.0272 87.6842C40.9532 88.2129 41.5758 88.5385 41.9503 88.1397Z" fill="#E9A091"/>
<path id="Vector_9" d="M34.6177 39.9456C33.2574 37.0046 28.5405 37.6142 26.5769 35.3178C24.5206 32.9133 25.972 28.486 27.3566 26.121C28.9472 23.4041 31.5217 21.4535 34.5391 20.5948C36.2899 20.0965 38.134 20.283 39.9213 20.3499C41.7083 20.4169 43.5134 20.6882 45.2284 21.1971C52.0466 23.2211 59.0151 30.1152 57.9542 37.7478C57.37 41.9521 55.1087 45.5092 52.3991 48.6519C50.0296 51.3992 47.0289 54.32 45.5906 57.6978C44.2163 60.925 45.4633 64.1761 44.7323 67.4676C44.5375 68.3435 43.0075 68.5444 42.2982 68.7082C41.0619 68.9933 39.7696 69.0697 38.5089 69.1824L40.0042 70.233C38.9935 64.0898 37.0921 57.515 41.1987 52.0791C44.4934 47.7176 49.4325 44.3844 50.9955 38.8933C52.6517 33.0731 48.5888 27.5736 42.7327 26.8581C39.6078 26.4759 36.6608 28.4757 34.8164 30.8356C33.7719 32.1719 33.0521 33.5955 32.5983 35.231C32.0735 37.1228 32.0821 39.0407 31.7305 40.956C31.5777 41.7891 32.7349 42.025 33.1636 41.4538C35.0886 38.8881 34.7547 35.5922 36.5558 33.0073C38.2057 30.6399 41.0212 29.2792 43.8495 30.0022C46.227 30.6097 48.1302 32.6644 48.6432 35.039C49.2039 37.634 47.965 40.2146 46.5339 42.2894C43.8228 46.2201 39.6603 49.1663 37.7248 53.6226C35.4342 58.8964 36.8566 65.2074 37.4603 70.6807C37.5177 71.2017 38.0775 71.7644 38.6213 71.746C41.1542 71.6598 44.1027 71.7282 46.3541 70.4063C48.9877 68.8599 48.3238 64.3143 48.474 61.788C48.581 59.9928 49.6226 58.6111 50.7692 57.3064C52.0994 55.7928 53.5081 54.3539 54.8296 52.83C57.4558 49.8011 60.2796 46.6141 61.337 42.6357C63.5014 34.4924 60.4909 25.381 53.7284 20.3359C47.9581 16.0313 40.2795 14.9617 33.4966 17.0713C27.7278 18.8654 23.7393 23.6292 22.503 29.501C21.8938 32.3946 22.3745 35.5149 24.4572 37.6897C25.6092 38.893 27.4943 39.389 29.018 39.8812C29.6834 40.0962 30.3029 40.3181 31.0012 40.389C31.719 40.462 32.6589 40.5373 33.1433 41.1284C33.8832 42.0317 35.0324 40.8419 34.6174 39.9453L34.6177 39.9456Z" fill="#E9A091"/>
<path id="Vector_10" d="M43.4763 78.4762C43.8517 79.0366 44.3934 79.4406 44.6518 80.0812C44.9186 80.7427 44.7482 81.4959 44.5084 82.1307C44.1181 83.1636 43.433 83.9622 42.7957 84.8381C42.6494 85.0395 42.8531 85.2643 43.071 85.2002C44.669 84.7309 45.6915 83.1696 46.0388 81.6198C46.3775 80.1082 45.4778 78.0722 43.7975 77.9437C43.5044 77.9213 43.3065 78.2225 43.4763 78.4762ZM38.6415 81.5238C37.6656 81.7891 38.2873 83.2593 38.704 83.7308C39.0754 84.1513 39.5094 84.4539 40.0001 84.7185C40.2728 84.8657 40.5564 84.9936 40.8645 85.0424C41.0824 85.0769 41.2952 84.9849 41.5109 84.9634C41.781 84.9367 41.7607 84.5904 41.5984 84.4613C41.3167 84.2378 41.1558 84.0202 40.81 83.865C40.4652 83.7102 40.1345 83.5256 39.8217 83.3133C39.5363 83.1205 39.2945 82.8793 39.1302 82.5756C38.9581 82.2575 38.9983 81.852 38.7717 81.5646C38.7385 81.5221 38.6929 81.51 38.6415 81.5238ZM26.127 28.488C26.5925 26.0651 29.2849 23.9802 31.238 22.8009C33.9728 21.1488 37.2727 20.3237 40.4589 20.4082C43.6079 20.4918 46.4887 21.8054 48.5901 24.1334C50.5308 26.2835 52.0895 29.0972 53.4208 31.6459C53.5166 31.829 53.8214 31.7178 53.8005 31.5206C53.4667 28.3529 51.6501 25.1073 49.5184 22.7736C47.2364 20.2751 43.9859 19.063 40.6648 18.8745C37.1195 18.6733 33.53 19.8122 30.5376 21.6594C28.1733 23.1193 25.688 25.5269 25.6134 28.4429C25.6048 28.7811 26.0651 28.8113 26.127 28.488ZM55.6678 40.2573C54.9979 41.3971 55.0099 42.7874 54.5017 44.007C53.8455 45.5818 52.7574 46.977 51.6963 48.2963C49.7929 50.6637 47.3589 52.7851 46.2323 55.6723C46.142 55.9045 46.4084 56.0723 46.5851 55.9051C48.8987 53.7144 51.0355 51.229 53.0288 48.7432C55.0079 46.2746 56.7158 43.5906 55.9411 40.3165C55.913 40.1979 55.7395 40.1355 55.6678 40.2573ZM44.1608 61.8577C43.9598 63.8406 43.406 65.8422 43.4553 67.8397C43.4605 68.0489 43.72 68.0863 43.8239 67.9288C44.996 66.1548 45.0318 63.8906 44.8609 61.8451C44.8268 61.4382 44.2007 61.4643 44.1608 61.8577ZM38.8744 69.2852C39.7428 69.722 40.7076 69.634 41.5688 69.1823C41.9528 68.9808 41.9084 68.2656 41.4022 68.2822C40.5019 68.3118 39.6181 68.4532 38.8354 68.8992C38.6802 68.9877 38.7385 69.2168 38.8744 69.2852ZM59.185 21.3787C64.0674 25.0274 65.3907 32.2201 64.5727 37.9282C64.5555 38.0486 64.7399 38.1222 64.7838 37.9971C66.7578 32.3865 65.0749 23.9015 59.4199 20.9617C59.1721 20.8329 58.9708 21.2186 59.185 21.3787ZM52.8294 60.5565C52.9748 62.1454 53.4604 63.6883 53.6462 65.2703C53.662 65.4036 53.8754 65.4364 53.9149 65.3005C54.3902 63.6745 53.9408 61.9368 53.1828 60.4562C53.0984 60.2915 52.8122 60.37 52.8294 60.5568V60.5565ZM51.343 67.5946C52.1853 67.8112 53.1767 66.8063 53.4429 66.0672C53.479 65.9666 53.3933 65.8488 53.2826 65.8715C52.8796 65.9548 52.5432 66.2565 52.2458 66.5255C51.9295 66.8115 51.5211 67.0192 51.2704 67.3658C51.2171 67.4394 51.2486 67.5701 51.343 67.5946Z" fill="white"/>
<path id="Vector_11" d="M55.1785 57.6204C56.0051 55.2657 58.4308 54.2912 60.2166 52.7909C66.4859 47.5239 68.878 38.6711 67.5757 30.7706C65.9467 20.8876 56.2334 14.7501 46.7618 14.1642C43.6736 13.9728 35.9359 14.4602 33.3204 16.1195C25.8752 17.8601 19.6134 28.1889 22.894 35.9091C24.8362 40.4784 29.7584 41.1456 34.1277 41.6175C34.2106 41.7439 34.3112 41.6942 34.4208 41.621C34.5217 41.5971 34.6015 41.5425 34.656 41.4686C37.0888 39.9174 40.019 39.42 42.3913 37.811C42.697 37.6035 42.4527 37.1474 42.1111 37.2423C41.8854 37.3049 41.6528 37.3716 41.4171 37.4397C41.2823 34.8286 42.4705 32.3836 42.4315 29.8254C44.441 30.0818 46.4486 31.5503 47.4489 33.2144C48.4492 34.8783 48.4728 36.9667 47.9892 38.7998C45.9788 46.4235 37.5497 47.6532 36.4361 58.2386C35.9611 62.7524 36.0294 67.919 37.5758 72.2204C37.6383 72.3949 37.8832 72.5564 38.0676 72.5452C39.2808 72.471 40.4784 72.3104 41.6766 72.1066C42.9726 71.8868 44.2859 72.0598 45.5707 71.8336C46.2854 71.7072 46.8461 71.4103 47.2702 70.979C48.9669 70.6876 50.4175 69.9646 51.9679 69.2378C54.5674 68.0199 56.3515 69.6096 54.2594 58.1294C54.2083 57.848 53.7971 57.8765 53.8128 58.1696C53.9373 60.4393 54.7134 66.4695 54.1444 67.5561C53.927 67.9713 53.6981 67.8909 53.2146 68.0199C51.6057 68.4504 49.4456 69.7824 47.7053 70.4129C49.6962 67.0822 46.4101 60.7333 50.2818 56.7511C51.9602 55.0252 54.1105 53.859 55.919 52.2851C67.5645 42.1468 63.1924 17.1816 41.8404 16.1172C39.8214 16.0166 37.7906 15.7695 35.7661 15.8298C46.0175 13.7599 53.4865 15.7005 59.0901 19.6111C62.825 22.2172 65.4159 25.9554 66.3024 30.4508C67.2373 35.1939 66.5447 40.6393 64.6103 45.0574C61.2181 52.8064 55.8998 53.1897 54.5553 56.7661C53.2114 56.6474 52.0298 57.0313 50.7691 57.4903C50.5316 57.5765 50.6352 57.9242 50.8812 57.8667C52.0433 57.5943 53.2553 57.1903 54.4527 57.0727C54.4254 57.1664 54.3973 57.2595 54.3761 57.3566C54.2757 57.8164 55.0159 58.0848 55.1785 57.6204ZM46.0256 18.1035C60.4498 21.9983 63.0536 36.8006 59.132 45.4999C56.9122 50.4235 53.7956 52.0302 51.0149 54.2093C46.5702 57.6917 46.9029 59.762 46.8908 64.5042C46.8862 66.2169 47.5421 68.632 46.2946 70.0031C45.4115 70.9735 43.8161 70.6109 42.6001 70.7522C41.2226 70.912 39.8784 71.2074 38.4975 71.3402C37.131 67.3802 37.1771 59.8318 37.8313 56.5256C38.9441 50.9008 42.2995 48.9291 45.581 45.2266C48.0603 42.4293 50.0969 38.7544 49.3716 34.8826C48.1624 28.4291 37.0653 23.3627 33.5022 38.0851C33.3889 38.5527 34.1125 38.7935 34.3046 38.3492C35.7314 35.0473 37.3059 29.7289 41.8834 29.7898C41.0374 32.1095 40.4104 35.1338 41.2017 37.5029C38.9102 38.1797 36.2755 39.1582 34.6069 40.8456C33.9031 40.1852 26.5294 40.7563 24.098 35.8353C20.536 28.6251 27.1813 17.242 35.4811 17.035C37.1926 16.9925 43.5047 17.4233 46.0256 18.1035ZM36.8095 79.1476C36.336 81.5644 36.0437 84.6214 38.1316 86.4477C38.7817 87.0161 39.5787 87.3653 40.4299 87.5282C40.45 87.9274 43.556 90.21 48.2531 87.1874C53.3832 83.886 53.2785 76.1149 47.7604 74.4303C43.6506 73.1765 40.3961 75.5051 41.1581 75.3916C43.1886 75.0936 45.0559 74.5229 47.122 75.0769C52.306 76.4672 52.3597 83.4803 47.7113 86.4667C45.9688 87.5863 43.2457 88.4452 41.1925 87.6202C46.456 87.9573 49.5431 82.7495 47.7351 79.1432C45.5704 74.8255 38.2285 74.0852 37.0656 78.7231C37.0426 78.8151 37.1734 78.8702 37.2202 78.7858C39.7485 74.2122 47.8897 77.173 46.9089 82.2911C46.3066 85.4333 42.5772 87.4291 39.6229 86.0589C37.2488 84.9582 37.2557 81.4767 37.3578 79.2366C37.3722 78.9269 36.872 78.8286 36.8095 79.1476Z" fill="#BA7C00"/>
</g>
</svg>
