<svg width="33" height="33" viewBox="0 0 33 33" fill="none" xmlns="http://www.w3.org/2000/svg">
<g id="fi_5968914" clip-path="url(#clip0_7806_58344)">
<g id="Group">
<path id="Vector" d="M9.48841 16.2426C9.32104 16.2169 9.15216 16.2024 8.98291 16.1993C8.60259 16.1946 8.44081 16.3344 8.44194 16.3342C8.32976 16.4134 8.27539 16.5316 8.27539 16.6948C8.27539 16.7988 8.29429 16.88 8.33126 16.9371C8.3555 16.975 8.36567 16.9894 8.43874 17.0477L8.43981 17.0484C8.43862 17.048 8.60636 17.1801 8.98548 17.1572C9.25242 17.1411 9.48866 17.0902 9.48866 17.0902H9.48841V16.2426Z" fill="#00A1E2"/>
<path id="Vector_2" d="M20.6353 15.1348C20.3896 15.1348 20.2157 15.2187 20.1014 15.3937C19.9863 15.5698 19.9277 15.8205 19.9277 16.1396C19.9277 16.4589 19.986 16.7119 20.1014 16.8892C20.216 17.0649 20.3907 17.1505 20.6353 17.1505C20.8798 17.1505 21.0552 17.0642 21.1714 16.888C21.2878 16.7096 21.3474 16.458 21.3474 16.1391C21.3474 15.8202 21.2885 15.5696 21.1714 15.3937C21.0557 15.2195 20.8809 15.1348 20.6353 15.1348Z" fill="#00A1E2"/>
<path id="Vector_3" d="M13.1486 15.1191C12.9042 15.1191 12.7303 15.2148 12.616 15.3899C12.5398 15.5045 12.4911 15.6522 12.4648 15.8294L13.7936 15.8297C13.7809 15.6582 13.7474 15.5052 13.6707 15.3899C13.5549 15.2153 13.3931 15.1191 13.1486 15.1191Z" fill="#00A1E2"/>
<path id="Vector_4" d="M25.6375 8.62031C24.6728 8.61981 23.7189 8.82328 22.8382 9.21735C21.8461 7.45582 20.0035 6.27355 17.8775 6.27355C16.283 6.27355 14.8397 6.94267 13.8027 8.02327L13.8039 8.02943C12.67 6.5339 10.8629 5.57031 8.8432 5.57031C5.39437 5.57031 2.59512 8.36047 2.59512 11.8127C2.59424 12.6668 2.76914 13.512 3.1089 14.2954C1.50728 15.2412 0.427734 16.991 0.427734 19.0008C0.427734 21.992 2.82539 24.4273 5.79 24.4273C6.16071 24.4276 6.53042 24.389 6.89316 24.3124C7.70809 26.5233 9.8223 28.0957 12.3144 28.0957C14.7003 28.0957 16.7495 26.6414 17.6294 24.5725C18.321 24.9101 19.0805 25.0847 19.8499 25.0833C21.7397 25.0833 23.3992 24.0311 24.2673 22.4823C24.7138 22.5712 25.1697 22.6182 25.6374 22.6182C29.4643 22.6182 32.5706 19.4853 32.5706 15.6193C32.5706 11.7533 29.4643 8.62031 25.6375 8.62031ZM7.33675 16.7374C7.33675 17.3025 6.92693 17.6536 6.26788 17.6536C5.94425 17.6536 5.63481 17.6028 5.30648 17.429C5.24508 17.3935 5.18375 17.3618 5.12342 17.318C5.11689 17.3087 5.08952 17.2976 5.10973 17.2449L5.10923 17.244L5.23918 16.8822C5.25971 16.8202 5.30698 16.8409 5.32588 16.8523C5.36166 16.8742 5.38816 16.8937 5.43455 16.9208C5.81844 17.1637 6.17264 17.1656 6.28376 17.1656C6.56959 17.1656 6.74795 17.013 6.74795 16.8085V16.7974C6.74795 16.5751 6.47392 16.4904 6.15739 16.393L6.08745 16.3712C5.65283 16.2471 5.18745 16.0674 5.18745 15.5164V15.5052C5.18745 14.9827 5.60914 14.6173 6.21263 14.6173L6.27842 14.6171C6.63275 14.6171 6.97527 14.7199 7.22331 14.8712C7.24585 14.8848 7.26782 14.9108 7.25533 14.9455C7.24353 14.9786 7.13335 15.2739 7.12067 15.3073C7.09738 15.3691 7.03341 15.3277 7.03341 15.3277C6.81726 15.2083 6.47944 15.1137 6.196 15.1137C5.94086 15.1137 5.7755 15.2497 5.7755 15.4342V15.4452C5.7755 15.6604 6.05776 15.7528 6.38496 15.859L6.44152 15.8773C6.87382 16.0133 7.33682 16.2036 7.33682 16.7262L7.33675 16.7374ZM10.0405 17.4645C10.0405 17.4645 9.97146 17.4833 9.90937 17.4975C9.75375 17.5313 9.59743 17.5617 9.44048 17.5888C9.25622 17.6199 9.06606 17.636 8.87471 17.636C8.69284 17.636 8.52748 17.6191 8.38102 17.5856C8.23336 17.5525 8.10548 17.4967 8.0019 17.4213C7.89775 17.3458 7.81413 17.2453 7.75857 17.1293C7.70188 17.0123 7.67319 16.8692 7.67319 16.7037C7.67319 16.5405 7.70684 16.3963 7.77288 16.2733C7.83829 16.1515 7.93083 16.0463 8.04333 15.9659C8.15552 15.885 8.28666 15.8243 8.43193 15.785C8.57601 15.746 8.73076 15.7261 8.89022 15.7261C9.00718 15.7261 9.10518 15.7288 9.18076 15.7344L9.18252 15.7388C9.18252 15.7388 9.33018 15.7521 9.48963 15.7753V15.6964C9.48963 15.4482 9.43778 15.33 9.33608 15.2519C9.23211 15.1721 9.07623 15.1313 8.87547 15.1313C8.87547 15.1313 8.42195 15.1254 8.06405 15.3205C8.04754 15.3303 8.03347 15.3358 8.03347 15.3358C8.03347 15.3358 7.98871 15.3516 7.97227 15.3056L7.83999 14.9509C7.8199 14.8995 7.85675 14.8768 7.85675 14.8768C8.02443 14.7453 8.43074 14.6663 8.43074 14.6663C8.5654 14.6392 8.79097 14.6203 8.93034 14.6203C9.30236 14.6203 9.58939 14.7066 9.78545 14.8781C9.9822 15.0495 10.0819 15.3273 10.0819 15.701L10.083 17.4034C10.083 17.4034 10.0865 17.4527 10.0405 17.4645ZM11.2901 17.5245C11.2901 17.5557 11.2678 17.5811 11.2367 17.5811H10.7426C10.7113 17.5811 10.6892 17.5557 10.6892 17.5245V13.5441C10.6892 13.513 10.7114 13.4878 10.7426 13.4878H11.2367C11.2679 13.4878 11.2901 13.5129 11.2901 13.5441V17.5245ZM14.378 16.242C14.3729 16.29 14.3237 16.2904 14.3237 16.2904L12.4576 16.289C12.4682 16.5728 12.5367 16.7726 12.6737 16.9097C12.8084 17.0437 13.0233 17.1292 13.3116 17.1297C13.7545 17.1308 13.9434 17.0412 14.0769 16.9913C14.0769 16.9913 14.1284 16.9729 14.1472 17.0239L14.2689 17.3656C14.2933 17.4232 14.2737 17.4431 14.2532 17.4547C14.1374 17.5197 13.854 17.6397 13.3154 17.6415C13.0532 17.6424 12.8264 17.6047 12.6386 17.532C12.4497 17.4586 12.2926 17.3546 12.1697 17.221C12.0481 17.0886 11.9569 16.9291 11.9004 16.747C11.8441 16.566 11.8158 16.3662 11.8158 16.1511C11.8158 15.9407 11.8432 15.7397 11.8973 15.5564C11.9516 15.3708 12.0371 15.2088 12.1501 15.0717C12.2635 14.9345 12.4076 14.8248 12.5789 14.7442C12.7501 14.6642 12.9616 14.6248 13.1942 14.6248C13.3777 14.6245 13.5593 14.6614 13.7281 14.7333C13.8451 14.7829 13.9619 14.874 14.0824 15.0028C14.158 15.0844 14.2742 15.2629 14.321 15.439L14.3223 15.4394C14.4419 15.8589 14.38 16.2221 14.378 16.242ZM15.9173 17.6527C15.5937 17.6527 15.2843 17.6018 14.9559 17.428C14.8945 17.3925 14.8329 17.3608 14.7728 17.317C14.7661 17.3077 14.7387 17.2967 14.7589 17.244L14.7574 17.243L14.8874 16.8812C14.9064 16.8221 14.962 16.8438 14.9739 16.8514C15.0092 16.8741 15.0363 16.8927 15.0827 16.9198C15.4654 17.1626 15.8206 17.1646 15.932 17.1646C16.2178 17.1646 16.3961 17.0121 16.3961 16.8075V16.7964C16.3961 16.5741 16.1233 16.4895 15.8056 16.392L15.7358 16.3703C15.3012 16.2461 14.8358 16.0664 14.8358 15.5155V15.5042C14.8358 14.9817 15.2574 14.6163 15.861 14.6163L15.9269 14.6161C16.2812 14.6161 16.6237 14.719 16.8718 14.8703C16.8942 14.8838 16.9163 14.9099 16.9036 14.9446C16.893 14.9776 16.7827 15.2729 16.7702 15.3064C16.7468 15.3681 16.6828 15.3268 16.6828 15.3268C16.4655 15.2073 16.1288 15.1128 15.8454 15.1128C15.5902 15.1128 15.4249 15.2487 15.4249 15.4332V15.4442C15.4249 15.6594 15.7071 15.7519 16.0343 15.858L16.0909 15.8764C16.5244 16.0123 16.9862 16.2026 16.9862 16.7252V16.7363C16.9863 17.3015 16.5764 17.6527 15.9173 17.6527ZM19.1785 15.1312C19.1678 15.1873 19.116 15.1854 19.116 15.1854H18.5023L18.0826 17.5628C18.0385 17.8086 17.9835 18.0195 17.9188 18.1894C17.8535 18.3609 17.7853 18.4866 17.6767 18.6065C17.5763 18.7178 17.4628 18.7999 17.3324 18.8471C17.2029 18.8939 17.0466 18.9181 16.8751 18.9181C16.7932 18.9181 16.7058 18.9166 16.6021 18.8921C16.5275 18.8745 16.4867 18.8619 16.4319 18.8423C16.4086 18.8339 16.39 18.8048 16.4032 18.7679C16.4162 18.7305 16.526 18.4285 16.5414 18.3888C16.5604 18.3404 16.6087 18.3588 16.6087 18.3588C16.6419 18.3728 16.665 18.3827 16.7092 18.3915C16.7535 18.4003 16.8135 18.4079 16.8586 18.4079C16.9397 18.4079 17.0136 18.398 17.0779 18.3763C17.1557 18.3502 17.2008 18.3054 17.2484 18.2445C17.2976 18.1816 17.3375 18.0949 17.3784 17.9793C17.4198 17.8622 17.4573 17.7075 17.49 17.5196L17.9078 15.1854H17.496C17.4464 15.1856 17.4305 15.1624 17.4353 15.1253L17.5048 14.7375C17.5156 14.6812 17.5672 14.6833 17.5672 14.6833H17.9902L18.013 14.5569C18.0762 14.1825 18.2022 13.8979 18.3874 13.7111C18.5739 13.5229 18.8395 13.4276 19.1765 13.4276C19.2613 13.4266 19.3461 13.4332 19.4298 13.4472C19.492 13.458 19.5534 13.4726 19.6139 13.4909C19.6271 13.4961 19.6628 13.5138 19.6482 13.5559L19.5057 13.9474C19.4938 13.9769 19.4856 13.9949 19.4249 13.9763C19.4098 13.9718 19.3874 13.9653 19.3296 13.953C19.2877 13.9442 19.2326 13.9375 19.1766 13.9375C19.1088 13.9366 19.0413 13.9464 18.9766 13.9664C18.9175 13.9858 18.864 14.0191 18.8206 14.0636C18.7741 14.1103 18.7192 14.1783 18.69 14.2625C18.6216 14.46 18.5945 14.6697 18.5916 14.6832H19.1872C19.2371 14.6829 19.2529 14.7061 19.2481 14.7432L19.1785 15.1312ZM21.8973 16.7299C21.843 16.9131 21.759 17.0739 21.6469 17.2087C21.5347 17.3435 21.3918 17.4513 21.2241 17.5279C21.0564 17.6045 20.858 17.6435 20.6347 17.6435C20.4115 17.6435 20.213 17.6045 20.0442 17.5279C19.8764 17.451 19.7337 17.3434 19.6214 17.2087C19.5092 17.0739 19.4249 16.9131 19.3709 16.7299C19.3172 16.5478 19.2899 16.3492 19.2899 16.1375C19.2899 15.926 19.3172 15.7273 19.3709 15.5452C19.4252 15.362 19.5094 15.2012 19.6214 15.0664C19.7335 14.9316 19.8765 14.8234 20.0442 14.7449C20.213 14.6665 20.4103 14.6266 20.6347 14.6266C20.8592 14.6266 21.0575 14.6662 21.2253 14.7449C21.3942 14.8229 21.5358 14.9317 21.6481 15.0664C21.7603 15.2012 21.8443 15.362 21.8985 15.5452H21.8973C21.951 15.7273 21.9783 15.9271 21.9783 16.1375C21.9783 16.3492 21.951 16.5478 21.8973 16.7299ZM24.1809 14.7733L24.1821 14.7656C24.1644 14.8165 24.0736 15.0717 24.0416 15.157C24.0294 15.1894 24.0094 15.2113 23.9735 15.2073C23.9735 15.2073 23.8666 15.1823 23.7692 15.1823C23.6845 15.1823 23.6002 15.1941 23.5187 15.2176C23.432 15.2445 23.353 15.292 23.2884 15.3559C23.2207 15.4221 23.1658 15.5144 23.1254 15.6302C23.0844 15.7472 23.0639 15.9328 23.0639 16.1196V17.5147C23.0639 17.5459 23.0387 17.5712 23.0075 17.5712H22.5185C22.4873 17.5712 22.462 17.5459 22.4619 17.5147V14.7363C22.4619 14.7051 22.4843 14.68 22.5153 14.68H22.9925C23.0238 14.68 23.0459 14.7051 23.0459 14.7363L23.0462 14.9633C23.1171 14.8663 23.2448 14.7825 23.3603 14.7304C23.4773 14.6779 23.6072 14.6384 23.841 14.6531C23.9627 14.6607 24.1211 14.6941 24.1529 14.7062C24.1534 14.7064 24.1539 14.7067 24.1544 14.7069C24.1801 14.7179 24.192 14.7476 24.1809 14.7733ZM26.5348 17.4976C26.327 17.5801 26.0376 17.6371 25.7553 17.6371C25.2781 17.6371 24.912 17.5 24.6687 17.2281C24.4253 16.9573 24.3025 16.5873 24.3025 16.1309C24.3025 15.9194 24.3327 15.7195 24.3923 15.5375C24.4525 15.3542 24.5423 15.1934 24.6604 15.0587C24.7785 14.9238 24.9274 14.8155 25.1033 14.7371C25.2793 14.6586 25.4848 14.619 25.7163 14.619C25.8722 14.619 26.0104 14.6284 26.1297 14.6467C26.2573 14.666 26.4257 14.7116 26.497 14.7396C26.5102 14.7447 26.5461 14.7624 26.5314 14.8044C26.4796 14.951 26.4439 15.0467 26.3956 15.1803C26.3749 15.2372 26.3318 15.2183 26.3318 15.2183C26.1499 15.1614 25.9763 15.135 25.7495 15.135C25.4779 15.135 25.2723 15.2272 25.1389 15.4046C25.0036 15.5842 24.9283 15.8184 24.9274 16.1305C24.9262 16.4734 25.0113 16.7263 25.1637 16.8836C25.3148 17.0407 25.5275 17.12 25.7932 17.12C25.9007 17.12 26.0027 17.1128 26.0944 17.0984C26.1853 17.0842 26.2707 17.0558 26.3507 17.0252C26.3507 17.0252 26.4029 17.005 26.4209 17.0585H26.4214L26.5572 17.4321C26.5746 17.4785 26.5348 17.4976 26.5348 17.4976ZM29.2965 16.242C29.2915 16.29 29.2423 16.2904 29.2423 16.2904L27.3761 16.289C27.3867 16.5728 27.4552 16.7726 27.5923 16.9097C27.7269 17.0437 27.9407 17.1292 28.23 17.1297C28.673 17.1308 28.8619 17.0412 28.9954 16.9913C28.9954 16.9913 29.0469 16.9729 29.0656 17.0239L29.1872 17.3656C29.2116 17.4232 29.1921 17.4431 29.1714 17.4547C29.0557 17.5197 28.7722 17.6397 28.2336 17.6415C27.9726 17.6424 27.7446 17.6047 27.5569 17.532C27.3679 17.4586 27.2108 17.3546 27.088 17.221C26.9651 17.0886 26.8741 16.9291 26.8175 16.747C26.7615 16.566 26.7331 16.3662 26.7331 16.1511C26.7331 15.9407 26.7605 15.7397 26.8148 15.5564C26.8691 15.3708 26.9543 15.2088 27.0676 15.0717C27.1809 14.9345 27.325 14.8248 27.4963 14.7442C27.6675 14.6642 27.879 14.6248 28.1116 14.6248C28.2951 14.6245 28.4767 14.6614 28.6455 14.7333C28.7625 14.7829 28.8794 14.874 28.9998 15.0028C29.0754 15.0844 29.1915 15.2629 29.2384 15.439L29.2409 15.4394C29.3604 15.8589 29.2985 16.2221 29.2965 16.242Z" fill="#00A1E2"/>
<path id="Vector_5" d="M28.0666 15.1191C27.8221 15.1191 27.6481 15.2148 27.5339 15.3899C27.4576 15.5045 27.4091 15.6522 27.3828 15.8294L28.7115 15.8297C28.699 15.6582 28.6655 15.5052 28.5887 15.3899C28.4729 15.2153 28.3111 15.1191 28.0666 15.1191Z" fill="#00A1E2"/>
</g>
</g>
<defs>
<clipPath id="clip0_7806_58344">
<rect width="32.1429" height="32.174" fill="white" transform="translate(0.427734 0.740234)"/>
</clipPath>
</defs>
</svg>
