<svg width="46" height="44" viewBox="0 0 46 44" fill="none" xmlns="http://www.w3.org/2000/svg">
<g id="Group">
<path id="Vector" d="M17.0778 34.9297H28.9105L31.6596 40.3988H14.3359L17.0778 34.9297Z" fill="#5D5B68"/>
<path id="Vector_2" d="M10.9258 40.3984H35.064V43.3075H10.9258V40.3984Z" fill="#848792"/>
<path id="Vector_3" d="M43.0131 0.179688H2.98403C1.58767 0.179688 0.453125 1.31423 0.453125 2.7106V29.0597H45.544V2.7106C45.544 1.31423 44.4095 0.179688 43.0131 0.179688Z" fill="#E6E9EE"/>
<path id="Vector_4" d="M43.3259 0.207031C43.3404 0.316122 43.3622 0.41794 43.3622 0.527031C43.3622 15.0798 31.5659 26.8761 17.0131 26.8761H0.453125V29.0579H45.544V2.70885C45.544 1.42158 44.5768 0.367031 43.3259 0.207031Z" fill="#C8CED6"/>
<path id="Vector_5" d="M0.453125 29.0586V32.404C0.453125 33.8004 1.58767 34.935 2.98403 34.935H43.0131C44.4095 34.935 45.544 33.8004 45.544 32.404V29.0586H0.453125Z" fill="#848792"/>
<path id="Vector_6" d="M32.5332 8.6875H36.0314V25.422H32.5332V8.6875Z" fill="#2C92BF"/>
<path id="Vector_7" d="M24.3301 25.4219H20.8319V15.9673H24.3301V25.4219Z" fill="#2C92BF"/>
<path id="Vector_8" d="M38.3809 15.9688H41.879V25.4233H38.3809V15.9688Z" fill="#4EC4A5"/>
<path id="Vector_9" d="M41.877 25.4219H40.4224V15.9673H41.877V25.4219Z" fill="#30AA87"/>
<path id="Vector_10" d="M30.1797 25.4258H26.6815V20.3421H30.1797V25.4258Z" fill="#4EC4A5"/>
<path id="Vector_11" d="M11.6535 3.82368C11.5953 3.82368 11.5444 3.81641 11.4862 3.81641C7.40621 3.81641 4.08984 7.13277 4.08984 11.22C4.08984 13.3073 4.9553 15.1837 6.34439 16.5291L11.6535 11.22V3.82368Z" fill="#E1533B"/>
<path id="Vector_12" d="M6.34375 16.5273C7.67466 17.8218 9.48557 18.6146 11.4928 18.6146C15.5801 18.6146 18.8965 15.2982 18.8965 11.2109H11.6528L6.34375 16.5273Z" fill="#F8CE01"/>
<path id="Vector_13" d="M11.6523 3.82422V11.2206H18.8887C18.8887 7.18422 15.6669 3.91149 11.6523 3.82422Z" fill="#5F6FE7"/>
<path id="Vector_14" d="M22.9988 32.7241C23.4004 32.7241 23.726 32.3985 23.726 31.9968C23.726 31.5951 23.4004 31.2695 22.9988 31.2695C22.5971 31.2695 22.2715 31.5951 22.2715 31.9968C22.2715 32.3985 22.5971 32.7241 22.9988 32.7241Z" fill="#C8CED6"/>
<g id="Group_2">
<path id="Vector_15" d="M16.5177 23.603H4.0886C3.6886 23.603 3.36133 23.2757 3.36133 22.8757C3.36133 22.4757 3.6886 22.1484 4.0886 22.1484H16.5177C16.9177 22.1484 17.245 22.4757 17.245 22.8757C17.245 23.2757 16.9177 23.603 16.5177 23.603Z" fill="#6E7FED"/>
</g>
<g id="Group_3">
<path id="Vector_16" d="M11.6522 26.1499H4.0886C3.6886 26.1499 3.36133 25.8226 3.36133 25.4226C3.36133 25.0226 3.6886 24.6953 4.0886 24.6953H11.6522C12.0522 24.6953 12.3795 25.0226 12.3795 25.4226C12.3795 25.8226 12.0595 26.1499 11.6522 26.1499Z" fill="#6E7FED"/>
</g>
<path id="Vector_17" d="M30.1777 25.4258H28.7232V20.3421H30.1777V25.4258Z" fill="#30AA87"/>
<g id="Group_4">
<path id="Vector_18" d="M36.0273 25.4219H34.5728V8.68733H36.0273V25.4219Z" fill="#1F81A3"/>
<path id="Vector_19" d="M24.3262 25.4219H22.8716V15.9673H24.3262V25.4219Z" fill="#1F81A3"/>
</g>
</g>
</svg>
