<svg width="207" height="414" viewBox="0 0 207 414" fill="none" xmlns="http://www.w3.org/2000/svg">
<g opacity="0.15">
<path fill-rule="evenodd" clip-rule="evenodd" d="M253.607 246.074C261.961 253.135 263.418 267.915 266.903 280.193C270.146 291.617 273.429 302.741 273.152 314.929C272.827 329.278 273.862 346.977 265.193 355.578C256.461 364.24 244.143 353.948 233.229 354.534C223.352 355.065 212.674 366.2 204.487 358.839C196.213 351.4 200.175 333.9 196.556 321.562C193.218 310.184 183.353 301.916 184.231 289.779C185.121 277.459 193.83 269.166 200.924 261.123C207.848 253.271 215.456 246.805 224.373 244.258C234.144 241.467 245.17 238.945 253.607 246.074Z" stroke="#E97862" stroke-width="2"/>
<path fill-rule="evenodd" clip-rule="evenodd" d="M261.421 224.465C272.859 234.128 274.864 254.344 279.641 271.136C284.089 286.762 288.589 301.977 288.218 318.643C287.783 338.264 289.213 362.467 277.355 374.216C265.411 386.051 248.548 371.962 233.611 372.75C220.095 373.463 205.49 388.676 194.281 378.6C182.953 368.417 188.362 344.493 183.401 327.617C178.826 312.054 165.32 300.737 166.512 284.141C167.722 267.296 179.634 255.968 189.336 244.977C198.806 234.249 209.213 225.417 221.416 221.944C234.782 218.141 249.871 214.706 261.421 224.465Z" stroke="#E97862" stroke-width="2"/>
<path fill-rule="evenodd" clip-rule="evenodd" d="M268.48 204.959C282.704 216.975 285.203 242.097 291.148 262.968C296.679 282.388 302.28 301.297 301.828 322.01C301.292 346.392 303.08 376.47 288.34 391.063C273.496 405.763 252.526 388.244 233.957 389.214C217.154 390.092 199.002 408.988 185.063 396.462C170.976 383.801 177.693 354.073 171.519 333.099C165.826 313.758 149.031 299.684 150.507 279.062C152.005 258.128 166.811 244.058 178.87 230.404C190.639 217.078 203.574 206.109 218.744 201.801C235.36 197.085 254.117 192.825 268.48 204.959Z" stroke="#E97862" stroke-width="2"/>
<path fill-rule="evenodd" clip-rule="evenodd" d="M275.034 186.842C291.841 201.043 294.799 230.721 301.831 255.379C308.375 278.324 314.993 300.666 314.463 325.131C313.836 353.936 315.953 389.468 298.539 406.703C281.003 424.062 256.219 403.358 234.277 404.498C214.421 405.529 192.976 427.845 176.503 413.041C159.854 398.081 167.785 362.963 160.485 338.183C153.755 315.332 133.905 298.7 135.645 274.339C137.411 249.611 154.903 232.994 169.149 216.869C183.054 201.131 198.337 188.178 216.261 183.094C235.895 177.528 258.058 172.503 275.034 186.842Z" stroke="#E97862" stroke-width="2"/>
<path fill-rule="evenodd" clip-rule="evenodd" d="M281.841 168.03C301.337 184.499 304.768 218.91 312.928 247.501C320.517 274.105 328.197 300.009 327.583 328.375C326.861 361.77 329.325 402.968 309.136 422.945C288.799 443.067 260.056 419.057 234.611 420.372C211.585 421.563 186.72 447.43 167.615 430.261C148.306 412.91 157.497 372.198 149.028 343.466C141.219 316.97 118.199 297.68 120.212 269.437C122.257 240.769 142.54 221.508 159.057 202.818C175.181 184.575 192.9 169.561 213.686 163.672C236.452 157.221 262.153 151.401 281.841 168.03Z" stroke="#E97862" stroke-width="2"/>
<path fill-rule="evenodd" clip-rule="evenodd" d="M290.16 145.04C312.94 164.28 316.956 204.475 326.487 237.873C335.358 268.949 344.335 299.209 343.624 332.341C342.786 371.347 345.667 419.469 322.081 442.799C298.327 466.297 264.746 438.246 235.02 439.775C208.12 441.16 179.075 471.367 156.752 451.309C134.192 431.038 144.924 383.486 135.026 349.924C125.899 318.973 99.0029 296.438 101.352 263.448C103.735 229.962 127.43 207.469 146.723 185.643C165.556 164.338 186.255 146.805 210.538 139.932C237.134 132.403 267.158 125.611 290.16 145.04Z" stroke="#E97862" stroke-width="2"/>
<path fill-rule="evenodd" clip-rule="evenodd" d="M299.234 119.946C325.592 142.21 330.247 188.715 341.281 227.356C351.548 263.312 361.941 298.322 361.12 336.655C360.153 381.783 363.493 437.458 336.206 464.444C308.722 491.626 269.86 459.165 235.464 460.929C204.338 462.526 170.732 497.469 144.9 474.258C118.793 450.8 131.205 395.789 119.749 356.956C109.184 321.146 78.06 295.069 80.7744 256.901C83.5295 218.16 110.942 192.142 133.265 166.893C155.055 142.249 179.005 121.967 207.101 114.023C237.876 105.316 272.616 97.4637 299.234 119.946Z" stroke="#E97862" stroke-width="2"/>
<path fill-rule="evenodd" clip-rule="evenodd" d="M308.058 95.563C337.9 120.77 343.172 173.408 355.664 217.145C367.291 257.843 379.058 297.472 378.132 340.862C377.042 391.942 380.824 454.96 349.941 485.501C318.829 516.264 274.835 479.516 235.898 481.509C200.663 483.311 162.624 522.857 133.379 496.582C103.824 470.027 117.87 407.761 104.899 363.806C92.9363 323.272 57.7012 293.751 60.7707 250.549C63.8864 206.699 94.9157 177.253 120.183 148.678C144.847 120.786 171.957 97.8348 203.762 88.8427C238.599 78.9944 277.924 70.1115 308.058 95.563Z" stroke="#E97862" stroke-width="2"/>
<path fill-rule="evenodd" clip-rule="evenodd" d="M316.126 73.2519C349.152 101.145 354.988 159.391 368.816 207.792C381.683 252.828 394.708 296.68 393.685 344.69C392.482 401.212 396.671 470.944 362.496 504.736C328.068 538.773 279.382 498.106 236.293 500.306C197.301 502.297 155.209 546.054 122.845 516.975C90.1369 487.588 105.677 418.69 91.3195 370.051C78.0792 325.197 39.0856 292.528 42.4799 244.725C45.9251 196.203 80.2612 163.623 108.222 132.007C135.514 101.146 165.513 75.7518 200.709 65.8031C239.259 54.9109 282.778 45.0858 316.126 73.2519Z" stroke="#E97862" stroke-width="2"/>
<path fill-rule="evenodd" clip-rule="evenodd" d="M324.696 49.5708C361.104 80.3195 367.539 144.525 382.787 197.877C396.975 247.521 411.332 295.859 410.207 348.783C408.886 411.084 413.509 487.952 375.832 525.197C337.886 562.713 284.211 517.881 236.713 520.303C193.73 522.495 147.332 570.723 111.652 538.667C75.5946 506.271 92.7225 430.325 76.8926 376.712C62.2937 327.267 19.3066 291.253 23.0459 238.559C26.8416 185.075 64.6915 149.166 95.5122 114.317C125.597 80.3041 158.664 52.3128 197.464 41.3522C239.96 29.3468 287.934 18.5201 324.696 49.5708Z" stroke="#E97862" stroke-width="2"/>
<path fill-rule="evenodd" clip-rule="evenodd" d="M334.022 23.7826C374.111 57.6399 381.201 128.33 397.991 187.072C413.613 241.73 429.425 294.953 428.191 353.219C426.737 421.814 431.83 506.443 390.35 547.447C348.569 588.749 289.468 539.384 237.169 542.047C189.841 544.457 138.754 597.552 99.4699 562.256C59.7672 526.585 78.6224 442.973 61.1903 383.941C45.115 329.504 -2.21809 289.849 1.89695 231.834C6.07367 172.948 47.7463 133.415 81.6809 95.0498C114.805 57.6017 151.213 26.7889 193.933 14.7227C240.722 1.50979 293.545 -10.4064 334.022 23.7826Z" stroke="#E97862" stroke-width="2"/>
</g>
</svg>
