<svg width="1440" height="558" viewBox="0 0 1440 558" fill="none" xmlns="http://www.w3.org/2000/svg">
<g opacity="0.05">
<path d="M720.004 689.227C651.643 689.227 563.896 661.836 459.198 607.814C332.423 542.399 185.286 507.817 33.7004 507.817H-130.903V503.777H33.7004C109.332 503.777 184.464 512.439 257.001 529.512C329.328 546.536 397.979 571.673 461.044 604.218C565.162 657.942 652.288 685.187 720.004 685.187C787.712 685.187 874.838 657.942 978.964 604.218C1042.04 571.673 1110.69 546.536 1183.01 529.512C1255.55 512.431 1330.68 503.777 1406.31 503.777H1570.91V507.817H1406.31C1254.72 507.817 1107.59 542.391 980.81 607.814C876.112 661.836 788.365 689.227 720.004 689.227Z" fill="#E97862"/>
<path d="M720.004 624.289C653.859 624.289 568.958 598.207 467.638 546.779C344.908 484.475 202.463 451.541 55.7136 451.541H-103.61V447.905H55.7136C128.903 447.905 201.609 456.146 271.808 472.411C341.797 488.62 408.24 512.552 469.274 543.539C570.078 594.708 654.432 620.661 719.996 620.661C785.56 620.661 869.921 594.716 970.718 543.539C1031.75 512.552 1098.19 488.628 1168.18 472.411C1238.38 456.155 1311.09 447.905 1384.28 447.905H1543.6V451.541H1384.28C1237.53 451.541 1095.08 484.475 972.354 546.779C871.05 598.207 786.14 624.289 720.004 624.289Z" fill="#E97862"/>
<path d="M720.004 559.351C656.084 559.351 574.012 534.586 476.077 485.743C357.394 426.55 219.648 395.265 77.7348 395.265H-76.3094V392.033H77.7348C220.14 392.033 358.386 423.439 477.512 482.851C574.996 531.467 656.584 556.119 719.996 556.119C783.416 556.119 864.997 531.467 962.48 482.851C1081.61 423.439 1219.85 392.033 1362.26 392.033H1516.3V395.265H1362.26C1220.34 395.265 1082.6 426.55 963.915 485.743C865.996 534.586 783.924 559.351 720.004 559.351Z" fill="#E97862"/>
<path d="M720.004 494.405C658.301 494.405 579.074 470.957 484.516 424.7C369.872 368.625 236.825 338.98 99.7563 338.98H-49.0084V336.152H99.7563C237.252 336.152 370.734 365.894 485.758 422.154C579.921 468.218 658.736 491.569 720.004 491.569C781.272 491.569 860.088 468.21 954.25 422.154C1069.27 365.886 1202.75 336.152 1340.25 336.152H1489.01V338.98H1340.25C1203.17 338.98 1070.13 368.617 955.491 424.7C860.934 470.957 781.707 494.405 720.004 494.405Z" fill="#E97862"/>
<path d="M720.004 429.467C660.517 429.467 584.128 407.328 492.956 363.664C382.366 310.701 254.01 282.704 121.778 282.704H-21.6995V280.28H121.778C254.373 280.28 383.083 308.357 493.996 361.475C584.838 404.977 660.88 427.043 720.004 427.043C779.128 427.043 855.171 404.985 946.013 361.475C1056.93 308.357 1185.64 280.28 1318.23 280.28H1461.71V282.704H1318.23C1186 282.704 1057.64 310.701 947.052 363.664C855.88 407.328 779.49 429.467 720.004 429.467Z" fill="#E97862"/>
<path d="M720.004 364.529C662.734 364.529 589.182 343.699 501.387 302.629C394.843 252.784 271.187 226.436 143.799 226.436H5.59328V224.416H143.791C271.477 224.416 395.424 250.829 502.233 300.803C589.762 341.752 663.024 362.517 720.004 362.517C776.976 362.517 850.246 341.752 937.767 300.803C1044.58 250.829 1168.52 224.416 1296.21 224.416H1434.41V226.436H1296.21C1168.81 226.436 1045.16 252.784 938.613 302.629C850.826 343.699 777.274 364.529 720.004 364.529Z" fill="#E97862"/>
<path d="M720.004 299.591C664.951 299.591 594.228 280.078 509.818 241.585C407.321 194.851 288.364 170.151 165.812 170.151H32.8943V168.535H165.812C288.59 168.535 407.772 193.284 510.479 240.115C594.687 278.502 665.177 297.975 719.996 297.975C774.816 297.975 845.312 278.51 929.512 240.115C1032.22 193.292 1151.4 168.535 1274.18 168.535H1407.1V170.151H1274.18C1151.63 170.151 1032.67 194.851 930.174 241.585C845.772 280.07 775.057 299.591 720.004 299.591Z" fill="#E97862"/>
<path d="M720.004 234.645C667.159 234.645 599.282 216.441 518.241 180.542C419.79 136.927 305.541 113.875 187.833 113.875H60.1953V112.663H187.833C305.71 112.663 420.129 135.755 518.733 179.435C599.612 215.269 667.337 233.433 720.004 233.433C772.671 233.433 840.396 215.261 921.275 179.435C1019.88 135.755 1134.3 112.663 1252.17 112.663H1379.81V113.875H1252.17C1134.47 113.875 1020.21 136.927 921.759 180.542C840.726 216.441 772.841 234.645 720.004 234.645Z" fill="#E97862"/>
<path d="M720.004 169.707C669.376 169.707 604.328 152.812 526.665 119.498C432.268 79.0019 322.71 57.5983 209.847 57.5983H87.4881V56.7903H209.847C322.815 56.7903 432.478 78.2182 526.979 118.755C604.537 152.028 669.481 168.899 719.996 168.899C770.511 168.899 835.455 152.028 913.013 118.755C1007.51 78.2182 1117.18 56.7903 1230.15 56.7903H1352.5V57.5983H1230.15C1117.28 57.5983 1007.73 79.0019 913.327 119.498C835.68 152.812 770.632 169.707 720.004 169.707Z" fill="#E97862"/>
<path d="M720.004 104.769C671.584 104.769 609.374 89.1907 535.088 58.4548C444.738 21.0773 339.887 1.32196 231.868 1.32196H114.797V0.917969H231.868C339.935 0.917969 444.843 20.6814 535.241 58.0831C609.479 88.7947 671.641 104.365 720.004 104.365C768.367 104.365 830.53 88.7947 904.767 58.0831C995.166 20.6894 1100.07 0.917969 1208.14 0.917969H1325.21V1.32196H1208.14C1100.12 1.32196 995.27 21.0773 904.92 58.4548C830.634 89.1826 768.423 104.769 720.004 104.769Z" fill="#E97862"/>
<path d="M720.004 104.567L722.019 687.207H717.989L720.004 104.567Z" fill="#E97862"/>
<path d="M689.003 102.66L678.049 683.846L674.43 683.773L689.003 102.66Z" fill="#E97862"/>
<path d="M658.003 97.6665L634.103 674.99L630.887 674.845L658.003 97.6665Z" fill="#E97862"/>
<path d="M627.002 90.4269L590.456 662.046L587.635 661.852L627.002 90.4269Z" fill="#E97862"/>
<path d="M581.081 76.1417L525.512 636.813L523.102 636.57L581.081 76.1417Z" fill="#E97862"/>
<path d="M535.161 58.269L461.117 606.158L459.126 605.883L535.161 58.269Z" fill="#E97862"/>
<path d="M461.995 32.7689L358.902 561.775L357.322 561.46L461.995 32.7689Z" fill="#E97862"/>
<path d="M387.283 15.1951L254.026 530.918L252.849 530.611L387.283 15.1951Z" fill="#E97862"/>
<path d="M310.7 4.69127L145.935 512.302L145.169 512.051L310.7 4.69127Z" fill="#E97862"/>
<path d="M231.868 1.11997L33.8857 505.87L33.5071 505.725L231.868 1.11997Z" fill="#E97862"/>
<path d="M-131 505.757L114.797 1.11997L-130.815 505.846L-131 505.757Z" fill="#E97862"/>
<path d="M720.004 104.567L722.019 687.207H717.989L720.004 104.567Z" fill="#E97862"/>
<path d="M751.005 102.66L765.578 683.773L761.951 683.846L751.005 102.66Z" fill="#E97862"/>
<path d="M782.005 97.6665L809.121 674.845L805.897 674.99L782.005 97.6665Z" fill="#E97862"/>
<path d="M813.006 90.4269L852.365 661.852L849.553 662.046L813.006 90.4269Z" fill="#E97862"/>
<path d="M858.927 76.1417L916.898 636.57L914.496 636.813L858.927 76.1417Z" fill="#E97862"/>
<path d="M904.839 58.269L980.882 605.883L978.883 606.158L904.839 58.269Z" fill="#E97862"/>
<path d="M978.005 32.7689L1082.69 561.46L1081.11 561.775L978.005 32.7689Z" fill="#E97862"/>
<path d="M1052.73 15.1951L1187.15 530.611L1185.98 530.918L1052.73 15.1951Z" fill="#E97862"/>
<path d="M1129.3 4.69127L1294.83 512.051L1294.06 512.302L1129.3 4.69127Z" fill="#E97862"/>
<path d="M1208.14 1.11997L1406.49 505.725L1406.12 505.87L1208.14 1.11997Z" fill="#E97862"/>
<path d="M1570.82 505.846L1325.21 1.11997L1571 505.757L1570.82 505.846Z" fill="#E97862"/>
</g>
</svg>
